<svg xmlns="http://www.w3.org/2000/svg" xmlns:xlink="http://www.w3.org/1999/xlink" width="1920" zoomAndPan="magnify" viewBox="0 0 1440 809.999993" height="1080" preserveAspectRatio="xMidYMid meet" version="1.0"><defs><clipPath id="id1"><path d="M -136.773438 627.261719 L 1290.535156 -261.6875 L 1576.808594 197.953125 L 149.496094 1086.902344 Z M -136.773438 627.261719 " clip-rule="nonzero"/></clipPath><clipPath id="id2"><path d="M -136.773438 627.261719 L 1290.535156 -261.6875 L 1576.808594 197.953125 L 149.496094 1086.902344 Z M -136.773438 627.261719 " clip-rule="nonzero"/></clipPath><clipPath id="id3"><path d="M 1060.476562 296.335938 C 990.683594 339.800781 803.84375 348.246094 700.378906 352.726562 C 677.988281 353.707031 658.804688 354.636719 644.8125 355.574219 C 563.585938 361.4375 532.957031 399.636719 493.765625 448.027344 C 458.230469 491.875 417.933594 541.601562 329.054688 580.429688 C 263.6875 609.148438 220.953125 586.828125 179.878906 565.089844 C 150.425781 550.050781 122.871094 535.453125 87.738281 538.859375 C -4.886719 548.261719 -21.144531 605.378906 -36.964844 660.601562 C -44.757812 688.144531 -52.195312 714.167969 -68.550781 734.722656 L -70.269531 733.523438 C -54.382812 713.257812 -46.941406 687.234375 -39.238281 660.074219 C -23.097656 604.324219 -6.429688 546.304688 87.421875 536.789062 C 123.019531 533.089844 151.101562 548.011719 180.699219 563.285156 C 221.480469 584.554688 263.691406 606.554688 328.125 578.414062 C 416.535156 539.878906 456.597656 490.296875 491.902344 446.59375 C 529.75 399.6875 562.425781 359.570312 644.492188 353.503906 C 658.34375 352.332031 677.671875 351.636719 700.058594 350.65625 C 810.636719 345.632812 1016.050781 336.316406 1071.65625 285.15625 C 1083.59375 274.15625 1096.144531 263.101562 1109.25 251.375 C 1168.878906 198.355469 1236.738281 138.265625 1266.246094 69.652344 C 1269.289062 62.574219 1272.097656 55.640625 1275.136719 48.558594 C 1300.640625 -11.402344 1326.582031 -73.253906 1380.5 -106.835938 C 1381.199219 -107.273438 1381.902344 -107.707031 1382.835938 -108.289062 L 1383.996094 -106.421875 C 1383.296875 -105.984375 1382.597656 -105.550781 1381.898438 -105.113281 C 1328.445312 -71.824219 1302.589844 -10.347656 1277.554688 49.320312 C 1274.515625 56.402344 1271.707031 63.335938 1268.664062 70.414062 C 1238.835938 139.550781 1170.976562 199.640625 1111.257812 253.039062 C 1098.152344 264.765625 1085.601562 275.824219 1073.664062 286.824219 C 1069.519531 290.050781 1065.375 293.28125 1060.476562 296.335938 Z M 1032.355469 309.960938 C 1039.910156 304.929688 1047.703125 299.753906 1055.726562 294.429688 C 1137.132812 240.488281 1229.21875 179.246094 1273.890625 86.605469 C 1281.140625 71.71875 1287.894531 55.519531 1294.476562 40.078125 C 1317.257812 -13.324219 1340.714844 -68.769531 1388.097656 -98.28125 C 1388.332031 -98.425781 1388.5625 -98.570312 1388.796875 -98.714844 L 1387.632812 -100.582031 C 1387.402344 -100.4375 1387.167969 -100.292969 1386.933594 -100.148438 C 1338.851562 -70.199219 1315.394531 -14.757812 1292.523438 39.027344 C 1285.945312 54.46875 1279.042969 70.433594 1271.9375 85.554688 C 1227.589844 177.667969 1135.503906 238.910156 1054.5625 292.5625 C 1046.539062 297.882812 1038.75 303.058594 1031.191406 308.089844 C 1029.789062 308.964844 1028.625 309.691406 1027.222656 310.5625 C 945.761719 361.296875 724.9375 385.398438 640.707031 394.753906 L 639.714844 394.722656 C 561.695312 403.128906 524.476562 439.597656 481.738281 481.769531 C 443.410156 519.574219 400.210938 562.039062 317.898438 595.804688 C 258.074219 620.421875 217.261719 600.144531 177.496094 580.507812 C 148.335938 565.9375 120.75 552.332031 86.519531 556.148438 C -2.320312 566.429688 -17.003906 624.511719 -31.101562 680.9375 C -37.726562 707.75 -44.234375 733.191406 -58.488281 752.4375 L -56.769531 753.636719 C -42.195312 733.867188 -35.921875 708.570312 -29.0625 681.609375 C -15.140625 625.945312 -0.632812 568.617188 87.128906 558.6875 C 120.832031 554.546875 148.1875 568.300781 177.203125 582.636719 C 217.113281 602.507812 258.449219 623.105469 319.207031 597.90625 C 401.75 563.996094 445.277344 521.007812 483.75 483.433594 C 526.25 441.40625 563.003906 405.230469 640.410156 396.882812 L 641.402344 396.914062 C 725.632812 387.558594 946.839844 363.542969 1028.765625 312.519531 C 1029.933594 311.792969 1031.332031 310.917969 1032.355469 309.960938 Z M 1279.726562 102.742188 C 1290.101562 82.992188 1298.703125 61.429688 1307.507812 40.714844 C 1328.535156 -10.300781 1350.152344 -62.980469 1394.355469 -90.832031 L 1393.191406 -92.703125 C 1348.289062 -64.410156 1326.4375 -11.589844 1305.320312 39.808594 C 1296.898438 60.609375 1287.917969 82.082031 1277.773438 101.6875 C 1216.074219 219.519531 1098.046875 278.121094 993.816406 329.746094 L 990.636719 331.402344 C 900.730469 376.378906 717.101562 424.308594 634.847656 436.320312 C 560.875 447.066406 519.4375 479.355469 471.664062 516.566406 C 430.691406 548.566406 384.175781 584.667969 307.960938 613.660156 C 252.605469 634.523438 213.1875 615.96875 174.820312 598.058594 C 146.007812 584.566406 118.855469 571.660156 86.140625 575.828125 C 1.179688 586.613281 -11.992188 647.644531 -23.582031 701.855469 C -28.894531 728.175781 -34.234375 752.890625 -46.851562 771.121094 L -45.132812 772.320312 C -32.28125 753.941406 -26.855469 728.847656 -21.308594 702.382812 C -9.28125 646.277344 3.191406 588.277344 86.695312 577.753906 C 118.5625 573.785156 145.566406 586.460938 174.234375 599.71875 C 212.746094 617.863281 252.921875 636.59375 308.980469 615.292969 C 385.425781 586.15625 432.175781 549.910156 473.148438 517.910156 C 520.6875 480.847656 561.894531 448.699219 635.253906 438.011719 C 717.503906 426 901.371094 377.925781 991.511719 332.804688 L 994.691406 331.148438 C 1035.296875 311.042969 1078.148438 289.863281 1118.761719 264.570312 C 1182.863281 224.972656 1241.789062 174.984375 1279.726562 102.742188 Z M 1285.5625 118.875 C 1298.246094 96.066406 1308.28125 70.046875 1318.054688 45.164062 C 1338.355469 -7.019531 1357.574219 -56.261719 1399.621094 -83.417969 L 1398.457031 -85.285156 C 1379.230469 -72.988281 1363.027344 -54.792969 1348.734375 -29.363281 C 1335.90625 -6.789062 1325.871094 19.230469 1316.246094 44.347656 C 1306.476562 69.230469 1296.527344 94.871094 1283.847656 117.675781 C 1210.261719 249.714844 1084.25 304.859375 950.554688 354.425781 C 915.203125 367.367188 875.445312 384.671875 833.53125 402.675781 C 759.675781 434.414062 683.339844 467.371094 630.535156 477.25 C 561.457031 490.132812 515.738281 517.632812 462.785156 549.640625 C 419.082031 576.214844 369.160156 606.332031 298.433594 630.613281 C 247.6875 647.957031 209.667969 631.125 172.699219 614.933594 C 144.144531 602.902344 117.34375 591.074219 86.234375 595.21875 C 5.527344 606.59375 -5.460938 668.53125 -15.15625 723.183594 C -19.683594 748.6875 -24.085938 772.820312 -34.839844 789.890625 L -33.121094 791.085938 C -21.902344 773.730469 -17.640625 749.363281 -12.882812 723.710938 C -3.132812 669.671875 7.679688 608.492188 86.929688 597.378906 C 117.425781 593.289062 144.085938 604.882812 172.316406 617.441406 C 209.429688 633.863281 248.207031 650.875 299.421875 633.238281 C 370.382812 608.8125 420.300781 578.695312 464.238281 551.976562 C 516.960938 520.113281 562.300781 492.523438 631.144531 479.789062 C 683.949219 469.910156 760.519531 436.808594 834.605469 404.921875 C 876.523438 386.921875 916.277344 369.613281 951.628906 356.671875 C 1016.929688 332.527344 1080.515625 307.1875 1137 272.007812 C 1195.996094 234.617188 1247.601562 186.917969 1285.5625 118.875 Z M 1291.167969 135.15625 C 1306.070312 109.667969 1316.898438 80.238281 1327.3125 51.714844 C 1346.304688 0.0234375 1364.066406 -48.960938 1404.710938 -75.246094 L 1403.546875 -77.113281 C 1362.347656 -50.15625 1344.351562 -1.03125 1325.273438 51.039062 C 1314.855469 79.566406 1304.265625 108.847656 1289.214844 134.101562 C 1198.515625 289.113281 1045.664062 341.210938 909.765625 377.882812 C 852.902344 393.207031 801.316406 425.332031 751.222656 456.207031 C 706.640625 483.976562 664.480469 509.90625 625.433594 518.996094 C 562.417969 533.285156 511.019531 556.871094 456.53125 581.734375 C 406.679688 604.679688 355.050781 628.410156 287.886719 648.523438 C 242.128906 662.4375 205.738281 647.183594 170.546875 632.804688 C 142.136719 621.003906 115.304688 610.167969 85.566406 614.429688 C 8.96875 626.164062 0.308594 689.242188 -7.578125 744.714844 C -10.9375 769.492188 -14.320312 792.667969 -23.582031 808.480469 L -21.632812 809.535156 C -12.136719 793.574219 -9.042969 769.933594 -5.449219 745.011719 C 2.261719 690.296875 11.121094 628.0625 86.027344 616.734375 C 115.242188 612.152344 141.84375 623.132812 169.871094 634.84375 C 205.589844 649.542969 242.214844 664.65625 288.582031 650.683594 C 355.980469 630.421875 407.609375 606.691406 457.460938 583.746094 C 511.570312 558.796875 562.96875 535.210938 625.984375 520.917969 C 665.410156 511.921875 707.65625 485.609375 752.382812 458.078125 C 802.101562 427.113281 853.832031 395.21875 910.085938 379.953125 C 986.109375 359.503906 1067.476562 334.105469 1140.300781 288.75 C 1198.1875 252.695312 1250.816406 204.039062 1291.167969 135.15625 Z M 1296.773438 151.433594 C 1313.804688 123.648438 1324.957031 91.101562 1335.699219 59.453125 C 1353.320312 7.644531 1370.234375 -41.132812 1409.511719 -67.539062 L 1408.347656 -69.40625 C 1368.371094 -42.566406 1351.601562 6.445312 1333.515625 58.546875 C 1322.625 89.957031 1311.476562 122.507812 1294.675781 150.148438 C 1246.933594 228.496094 1184.089844 286.757812 1102.527344 328.480469 C 1025.074219 367.96875 940.917969 387.324219 869.070312 400.960938 C 802.441406 413.613281 757.257812 456.015625 717.265625 493.238281 C 685.917969 522.484375 656.292969 550.335938 620.507812 559.980469 C 571.253906 573.480469 524.300781 589.113281 474.71875 605.730469 C 413.648438 626.265625 350.652344 647.351562 277.660156 665.914062 C 236.890625 676.394531 202.046875 663.097656 168.714844 650.148438 C 140.277344 639.339844 113.5 629.117188 85.042969 633.878906 C 12.699219 646.199219 5.757812 713.074219 0.292969 766.714844 C -2.191406 790.296875 -4.40625 812.742188 -11.949219 827.164062 L -10.140625 827.984375 C -2.511719 813.183594 -0.296875 790.738281 2.273438 766.773438 C 8.179688 711.242188 14.476562 648.011719 85.738281 636.035156 C 113.585938 631.332031 140.359375 641.558594 168.417969 652.277344 C 202.363281 665.167969 237.355469 678.699219 278.734375 668.160156 C 351.726562 649.597656 414.722656 628.515625 475.792969 607.980469 C 525.375 591.359375 572.183594 575.492188 621.585938 562.226562 C 657.601562 552.4375 687.460938 524.441406 719.277344 494.902344 C 759.03125 457.828125 803.984375 415.570312 870.144531 403.207031 C 942.226562 389.425781 1026.527344 370.304688 1104.214844 330.671875 C 1117.542969 323.988281 1130.207031 316.75 1142.34375 309.191406 C 1205.539062 269.183594 1256.511719 217.34375 1296.773438 151.433594 Z M 1302.609375 167.570312 C 1321.453125 138.007812 1332.785156 102.105469 1343.761719 67.71875 C 1360.480469 15.5 1376.261719 -33.542969 1414.921875 -59.890625 L 1413.902344 -61.523438 C 1374.773438 -34.886719 1358.671875 14.679688 1342.101562 67.132812 C 1331.121094 101.519531 1319.644531 137.1875 1301.035156 166.605469 C 1180.875 356.496094 1003.25 402.628906 829.128906 424.214844 C 755.128906 433.355469 722.003906 483.15625 692.878906 526.898438 C 671.117188 559.574219 650.785156 590.386719 616.488281 601.375 C 514.675781 633.996094 388.5 659.753906 268.425781 683.332031 C 232.644531 690.382812 199.953125 678.984375 168.398438 667.847656 C 139.640625 657.5625 112.453125 648.242188 85.132812 653.269531 C 16.433594 666.238281 12.199219 734.339844 8.832031 789.265625 C 7.429688 812.503906 6.117188 832.765625 0.300781 845.785156 L 2.105469 846.605469 C 8.011719 833.203125 9.324219 812.941406 10.8125 789.328125 C 14.386719 735.25 18.441406 667.902344 85.683594 655.191406 C 112.625 650.078125 139.34375 659.691406 167.957031 669.742188 C 199.890625 680.964844 232.730469 692.597656 269.121094 685.492188 C 389.433594 661.765625 515.371094 636.15625 617.417969 603.390625 C 652.328125 592.34375 672.980469 561.007812 694.976562 528.183594 C 723.867188 484.589844 756.671875 435.3125 829.824219 426.375 C 937.148438 413.007812 1045.59375 390.515625 1141.527344 330.765625 C 1200.757812 293.230469 1256.15625 241.222656 1302.609375 167.570312 Z M 1307.980469 183.992188 C 1328.632812 152.65625 1339.96875 114.160156 1351.269531 76.65625 C 1367.085938 24.027344 1382.050781 -25.804688 1419.867188 -51.949219 L 1418.847656 -53.585938 C 1380.332031 -27.003906 1365.28125 23.207031 1349.378906 76.214844 C 1338.160156 113.339844 1326.828125 151.835938 1306.40625 183.027344 C 1168.902344 393.445312 976.007812 434.828125 788.109375 447.820312 C 707.585938 453.246094 687.683594 509.714844 670.125 559.542969 C 657.25 596.082031 645.046875 630.582031 611.386719 643.121094 C 538.820312 670.164062 430.246094 682.042969 334.382812 692.488281 C 307.355469 695.386719 281.929688 698.253906 258.253906 701.332031 C 227.988281 705.273438 197.917969 695.484375 168.75 686.101562 C 138.914062 676.164062 110.796875 667.425781 84.375 672.859375 C 19.464844 686.710938 17.910156 759.628906 16.726562 812.867188 C 16.289062 834.53125 15.941406 853.21875 11.699219 864.613281 L 13.738281 865.289062 C 18.070312 853.515625 18.652344 834.679688 18.941406 812.785156 C 20.273438 757.183594 21.707031 688.230469 84.925781 674.785156 C 110.96875 669.261719 138.621094 678.292969 168.167969 687.761719 C 197.332031 697.144531 227.785156 707.023438 258.660156 703.023438 C 282.335938 699.949219 307.90625 697.308594 334.785156 694.179688 C 430.882812 683.589844 539.695312 671.566406 612.257812 644.519531 C 646.761719 631.78125 659.144531 596.523438 672.109375 559.605469 C 690.253906 508.117188 709.214844 454.824219 788.371094 449.277344 C 907.902344 440.945312 1029.695312 421.160156 1137.765625 353.851562 C 1199.996094 315.417969 1257.527344 261.113281 1307.980469 183.992188 Z M 1313.816406 200.128906 C 1336.046875 167.160156 1347.617188 125.925781 1358.691406 85.96875 C 1373.691406 32.550781 1387.753906 -17.691406 1425.191406 -43.921875 L 1424.171875 -45.558594 C 1386.035156 -18.886719 1372.03125 31.964844 1356.796875 85.527344 C 1345.578125 125.25 1334.238281 166.339844 1312.242188 199.164062 C 1242.75 302.402344 1158.988281 373.367188 1055.558594 416.394531 C 971.847656 451.03125 876.847656 468.066406 748.023438 470.839844 C 661.5 472.875 655.003906 532.664062 648.804688 590.324219 C 644.492188 631.253906 640.328125 669.820312 606.839844 684.195312 C 539.871094 712.941406 415.566406 715.171875 315.921875 716.945312 C 291.261719 717.398438 268.203125 717.824219 248.261719 718.578125 C 223.65625 719.640625 196.964844 711.632812 171.175781 704.035156 C 139.558594 694.882812 110.070312 686.027344 83.855469 692.308594 C 22.355469 706.953125 24 782.414062 24.972656 837.550781 C 25.441406 857.027344 25.769531 873.675781 23.101562 883.441406 L 24.996094 883.878906 C 27.75 873.738281 27.277344 856.855469 27.042969 837.234375 C 25.894531 782.851562 24.597656 708.472656 84.261719 694 C 109.628906 687.921875 139.351562 696.632812 170.355469 705.84375 C 196.144531 713.441406 223.070312 721.300781 248.054688 720.324219 C 267.996094 719.574219 291.054688 719.148438 315.71875 718.695312 C 415.738281 717.007812 540.042969 714.777344 607.480469 685.742188 C 641.667969 670.929688 646.003906 631.605469 650.640625 590.152344 C 656.664062 533.25 663.128906 474.449219 747.816406 472.589844 C 877.109375 469.523438 972.25 452.722656 1056.199219 417.941406 C 1083.789062 406.589844 1110.074219 393.136719 1135.050781 377.582031 C 1203.90625 334.695312 1262.871094 275.933594 1313.816406 200.128906 Z M 1319.652344 216.261719 C 1343.460938 181.664062 1355.035156 137.832031 1366.113281 95.285156 C 1380.0625 41.222656 1393.542969 -9.953125 1430.601562 -36.273438 L 1429.582031 -37.910156 C 1391.96875 -10.917969 1378.636719 40.492188 1364.21875 94.84375 C 1353.230469 137.015625 1341.800781 181.078125 1318.082031 215.296875 C 1241.316406 326.628906 1150.085938 402.246094 1039.398438 445.582031 C 949.328125 480.933594 843.925781 496.347656 707.472656 494.152344 C 676.660156 493.574219 655.3125 500.386719 641.734375 515 C 619.402344 538.957031 623.164062 580.367188 627.042969 620.40625 C 631.207031 666.101562 635.375 709.203125 602.207031 725.648438 C 534.703125 759.261719 368.589844 746.371094 269.164062 738.617188 C 257.972656 737.808594 247.390625 736.945312 238.324219 736.433594 C 220.046875 735.175781 199.386719 729.570312 177.445312 723.464844 C 144.226562 714.339844 109.867188 704.949219 83.476562 711.988281 C 24.6875 727.859375 30.402344 809.859375 34.003906 864.011719 C 35.027344 880.226562 35.972656 894.222656 34.882812 902.355469 L 37.007812 902.648438 C 38.332031 894.371094 37.246094 880.140625 36.21875 863.929688 C 32.675781 810.390625 27.308594 729.46875 84.261719 713.765625 C 110.042969 706.785156 144.398438 716.175781 177.238281 725.214844 C 199.179688 731.320312 219.84375 736.925781 238.351562 738.035156 C 247.5625 738.78125 257.996094 739.414062 269.191406 740.21875 C 368.617188 747.976562 535.34375 760.808594 603.078125 727.046875 C 604.625 726.410156 606.027344 725.539062 607.425781 724.664062 C 637.070312 706.203125 633.25 664.179688 628.96875 619.855469 C 625.378906 580.28125 621.527344 539.25 643.308594 515.964844 C 656.328125 502.019531 677.445312 495.351562 707.5 495.753906 C 844.332031 498.039062 949.96875 482.480469 1040.269531 446.980469 C 1072.324219 434.472656 1102.632812 419.160156 1131.578125 401.132812 C 1202.679688 357.175781 1264.855469 295.761719 1319.652344 216.261719 Z M 606.25 648.914062 C 595.054688 605.972656 583.457031 561.34375 602.960938 537.527344 C 614.378906 523.609375 634.9375 517.613281 666.332031 519.125 C 812.546875 526.585938 926.140625 512.878906 1023.640625 476.460938 C 1141.765625 432.058594 1240.523438 352.402344 1325.113281 232.308594 C 1350.640625 196.316406 1361.839844 149.800781 1372.6875 104.800781 C 1386.058594 49.804688 1398.488281 -2.011719 1435.253906 -28.800781 L 1434.003906 -30.292969 C 1396.769531 -3.210938 1384.015625 49.132812 1370.792969 104.359375 C 1359.945312 149.359375 1348.601562 195.640625 1323.539062 231.34375 C 1239.273438 350.914062 1140.894531 430.65625 1022.859375 474.679688 C 925.734375 511.1875 812.375 524.75 666.394531 517.144531 C 634.242188 515.453125 613.214844 521.742188 601.476562 536.183594 C 581.417969 560.667969 593.074219 605.914062 604.324219 649.464844 C 617.285156 699.402344 629.492188 746.570312 598.449219 765.90625 C 597.984375 766.195312 597.515625 766.488281 597.050781 766.777344 C 568.457031 783.289062 506.039062 788.136719 416.671875 780.921875 C 348.085938 775.347656 272.597656 763.375 227.953125 753.585938 C 218.246094 751.53125 206.824219 748.273438 194.644531 744.839844 C 157.871094 734.6875 111.710938 721.949219 82.664062 730.96875 C 26.40625 748.828125 37.792969 842.53125 43.785156 893.246094 C 45.3125 905.582031 46.464844 915.234375 46.285156 921.179688 L 48.265625 921.242188 C 48.304688 915.0625 47.152344 905.410156 45.621094 893.074219 C 39.597656 843.347656 28.414062 750.492188 83.507812 733.359375 C 111.941406 724.398438 157.71875 737.046875 194.261719 747.347656 C 206.441406 750.78125 217.867188 754.035156 227.804688 755.949219 C 301.941406 772 529.070312 808.46875 598.125 769.027344 C 598.589844 768.734375 599.058594 768.445312 599.523438 768.152344 C 631.824219 747.714844 618.949219 697.394531 606.25 648.914062 Z M 593.667969 809.722656 C 627.398438 787.417969 604.941406 731.074219 583.179688 676.890625 C 564.617188 630.441406 545.414062 582.445312 563.171875 558.421875 C 573.277344 544.996094 593.660156 539.757812 626.015625 542.292969 C 781.605469 554.929688 902.921875 543.21875 1007.480469 505.644531 C 1132.953125 460.558594 1238.714844 376.539062 1330.949219 248.441406 C 1357.820312 210.964844 1369.023438 161.855469 1379.640625 114.40625 C 1392.195312 58.621094 1404.046875 5.867188 1440.433594 -21.007812 L 1439.5625 -22.410156 C 1402.472656 4.902344 1390.535156 58.035156 1377.894531 114.199219 C 1367.128906 161.414062 1356.160156 210.378906 1329.375 247.476562 C 1237.460938 375.050781 1131.933594 458.925781 1006.84375 504.101562 C 902.515625 541.527344 781.433594 553.09375 626.21875 540.542969 C 593.109375 537.832031 572.023438 543.507812 561.597656 557.457031 C 543.199219 582.527344 561.617188 628.746094 581.402344 677.675781 C 602.726562 731.160156 624.832031 786.421875 592.648438 808.085938 C 558.132812 831.203125 462.410156 822.113281 408.605469 814.789062 C 326.152344 803.589844 249.074219 783.859375 218.484375 771.152344 C 189.175781 758.941406 117.546875 738.085938 82.519531 750.5 C 25.878906 770.871094 47.761719 885.582031 55.980469 928.429688 C 56.90625 933.039062 57.777344 937.035156 58.152344 939.714844 L 60.222656 939.398438 C 59.703125 936.484375 58.976562 932.71875 58.050781 928.113281 C 49.976562 885.5 28.355469 772.246094 83.21875 752.660156 C 114.628906 741.199219 180.664062 757.761719 217.578125 773.335938 C 282.226562 800.160156 529.625 849.933594 592.410156 810.828125 C 592.734375 810.300781 593.199219 810.011719 593.667969 809.722656 Z M 593.667969 809.722656 " clip-rule="nonzero"/></clipPath><linearGradient x1="7.58798" gradientTransform="matrix(2.334113, -1.453717, 1.454355, 2.335136, -159.074897, 594.054825)" y1="117.318001" x2="607.827033" gradientUnits="userSpaceOnUse" y2="117.318001" id="id4"><stop stop-opacity="1" stop-color="rgb(59.736633%, 2.648926%, 50.309753%)" offset="0"/><stop stop-opacity="1" stop-color="rgb(59.561157%, 2.615356%, 50.38147%)" offset="0.015625"/><stop stop-opacity="1" stop-color="rgb(59.213257%, 2.549744%, 50.527954%)" offset="0.03125"/><stop stop-opacity="1" stop-color="rgb(58.865356%, 2.484131%, 50.672913%)" offset="0.046875"/><stop stop-opacity="1" stop-color="rgb(58.51593%, 2.418518%, 50.819397%)" offset="0.0625"/><stop stop-opacity="1" stop-color="rgb(58.16803%, 2.352905%, 50.964355%)" offset="0.078125"/><stop stop-opacity="1" stop-color="rgb(57.820129%, 2.287292%, 51.109314%)" offset="0.09375"/><stop stop-opacity="1" stop-color="rgb(57.470703%, 2.22168%, 51.255798%)" offset="0.109375"/><stop stop-opacity="1" stop-color="rgb(57.122803%, 2.156067%, 51.400757%)" offset="0.125"/><stop stop-opacity="1" stop-color="rgb(56.774902%, 2.090454%, 51.547241%)" offset="0.140625"/><stop stop-opacity="1" stop-color="rgb(56.425476%, 2.024841%, 51.6922%)" offset="0.15625"/><stop stop-opacity="1" stop-color="rgb(56.077576%, 1.959229%, 51.838684%)" offset="0.171875"/><stop stop-opacity="1" stop-color="rgb(55.729675%, 1.893616%, 51.983643%)" offset="0.1875"/><stop stop-opacity="1" stop-color="rgb(55.380249%, 1.828003%, 52.130127%)" offset="0.203125"/><stop stop-opacity="1" stop-color="rgb(55.032349%, 1.76239%, 52.275085%)" offset="0.21875"/><stop stop-opacity="1" stop-color="rgb(54.684448%, 1.696777%, 52.420044%)" offset="0.234375"/><stop stop-opacity="1" stop-color="rgb(54.335022%, 1.631165%, 52.566528%)" offset="0.25"/><stop stop-opacity="1" stop-color="rgb(53.987122%, 1.565552%, 52.711487%)" offset="0.265625"/><stop stop-opacity="1" stop-color="rgb(53.639221%, 1.499939%, 52.857971%)" offset="0.28125"/><stop stop-opacity="1" stop-color="rgb(53.289795%, 1.434326%, 53.00293%)" offset="0.296875"/><stop stop-opacity="1" stop-color="rgb(52.941895%, 1.368713%, 53.149414%)" offset="0.3125"/><stop stop-opacity="1" stop-color="rgb(52.593994%, 1.303101%, 53.294373%)" offset="0.328125"/><stop stop-opacity="1" stop-color="rgb(52.244568%, 1.235962%, 53.440857%)" offset="0.34375"/><stop stop-opacity="1" stop-color="rgb(51.896667%, 1.170349%, 53.585815%)" offset="0.359375"/><stop stop-opacity="1" stop-color="rgb(51.548767%, 1.104736%, 53.730774%)" offset="0.375"/><stop stop-opacity="1" stop-color="rgb(51.199341%, 1.039124%, 53.877258%)" offset="0.390625"/><stop stop-opacity="1" stop-color="rgb(50.85144%, 0.973511%, 54.022217%)" offset="0.40625"/><stop stop-opacity="1" stop-color="rgb(50.50354%, 0.907898%, 54.168701%)" offset="0.421875"/><stop stop-opacity="1" stop-color="rgb(50.154114%, 0.842285%, 54.31366%)" offset="0.4375"/><stop stop-opacity="1" stop-color="rgb(49.806213%, 0.776672%, 54.460144%)" offset="0.453125"/><stop stop-opacity="1" stop-color="rgb(49.458313%, 0.71106%, 54.605103%)" offset="0.46875"/><stop stop-opacity="1" stop-color="rgb(49.108887%, 0.645447%, 54.751587%)" offset="0.484375"/><stop stop-opacity="1" stop-color="rgb(48.760986%, 0.579834%, 54.896545%)" offset="0.5"/><stop stop-opacity="1" stop-color="rgb(48.413086%, 0.514221%, 55.04303%)" offset="0.515625"/><stop stop-opacity="1" stop-color="rgb(48.06366%, 0.448608%, 55.187988%)" offset="0.53125"/><stop stop-opacity="1" stop-color="rgb(47.772217%, 0.405884%, 55.235291%)" offset="0.539062"/><stop stop-opacity="1" stop-color="rgb(47.505188%, 0.392151%, 55.119324%)" offset="0.546875"/><stop stop-opacity="1" stop-color="rgb(47.20459%, 0.386047%, 54.936218%)" offset="0.554687"/><stop stop-opacity="1" stop-color="rgb(46.903992%, 0.378418%, 54.751587%)" offset="0.5625"/><stop stop-opacity="1" stop-color="rgb(46.603394%, 0.372314%, 54.568481%)" offset="0.570312"/><stop stop-opacity="1" stop-color="rgb(46.302795%, 0.366211%, 54.385376%)" offset="0.578125"/><stop stop-opacity="1" stop-color="rgb(46.002197%, 0.358582%, 54.200745%)" offset="0.585937"/><stop stop-opacity="1" stop-color="rgb(45.701599%, 0.352478%, 54.017639%)" offset="0.59375"/><stop stop-opacity="1" stop-color="rgb(45.401001%, 0.346375%, 53.834534%)" offset="0.601562"/><stop stop-opacity="1" stop-color="rgb(45.100403%, 0.338745%, 53.649902%)" offset="0.609375"/><stop stop-opacity="1" stop-color="rgb(44.799805%, 0.332642%, 53.466797%)" offset="0.617187"/><stop stop-opacity="1" stop-color="rgb(44.499207%, 0.325012%, 53.283691%)" offset="0.625"/><stop stop-opacity="1" stop-color="rgb(44.198608%, 0.318909%, 53.09906%)" offset="0.632812"/><stop stop-opacity="1" stop-color="rgb(43.89801%, 0.312805%, 52.915955%)" offset="0.640625"/><stop stop-opacity="1" stop-color="rgb(43.597412%, 0.305176%, 52.731323%)" offset="0.648438"/><stop stop-opacity="1" stop-color="rgb(43.29834%, 0.299072%, 52.548218%)" offset="0.65625"/><stop stop-opacity="1" stop-color="rgb(42.997742%, 0.292969%, 52.365112%)" offset="0.664062"/><stop stop-opacity="1" stop-color="rgb(42.697144%, 0.285339%, 52.180481%)" offset="0.671875"/><stop stop-opacity="1" stop-color="rgb(42.396545%, 0.279236%, 51.997375%)" offset="0.679688"/><stop stop-opacity="1" stop-color="rgb(42.095947%, 0.271606%, 51.81427%)" offset="0.6875"/><stop stop-opacity="1" stop-color="rgb(41.795349%, 0.265503%, 51.629639%)" offset="0.695312"/><stop stop-opacity="1" stop-color="rgb(41.494751%, 0.259399%, 51.446533%)" offset="0.703125"/><stop stop-opacity="1" stop-color="rgb(41.194153%, 0.25177%, 51.263428%)" offset="0.710938"/><stop stop-opacity="1" stop-color="rgb(40.893555%, 0.245667%, 51.078796%)" offset="0.71875"/><stop stop-opacity="1" stop-color="rgb(40.592957%, 0.239563%, 50.895691%)" offset="0.726562"/><stop stop-opacity="1" stop-color="rgb(40.292358%, 0.231934%, 50.712585%)" offset="0.734375"/><stop stop-opacity="1" stop-color="rgb(39.99176%, 0.22583%, 50.527954%)" offset="0.742188"/><stop stop-opacity="1" stop-color="rgb(39.691162%, 0.218201%, 50.344849%)" offset="0.75"/><stop stop-opacity="1" stop-color="rgb(39.390564%, 0.212097%, 50.161743%)" offset="0.757812"/><stop stop-opacity="1" stop-color="rgb(39.089966%, 0.205994%, 49.977112%)" offset="0.765625"/><stop stop-opacity="1" stop-color="rgb(38.789368%, 0.198364%, 49.794006%)" offset="0.773438"/><stop stop-opacity="1" stop-color="rgb(38.48877%, 0.192261%, 49.609375%)" offset="0.78125"/><stop stop-opacity="1" stop-color="rgb(38.189697%, 0.186157%, 49.42627%)" offset="0.789062"/><stop stop-opacity="1" stop-color="rgb(37.889099%, 0.178528%, 49.243164%)" offset="0.796875"/><stop stop-opacity="1" stop-color="rgb(37.588501%, 0.172424%, 49.058533%)" offset="0.804688"/><stop stop-opacity="1" stop-color="rgb(37.287903%, 0.164795%, 48.875427%)" offset="0.8125"/><stop stop-opacity="1" stop-color="rgb(36.987305%, 0.158691%, 48.692322%)" offset="0.820312"/><stop stop-opacity="1" stop-color="rgb(36.686707%, 0.152588%, 48.50769%)" offset="0.828125"/><stop stop-opacity="1" stop-color="rgb(36.386108%, 0.144958%, 48.324585%)" offset="0.835938"/><stop stop-opacity="1" stop-color="rgb(36.08551%, 0.138855%, 48.141479%)" offset="0.84375"/><stop stop-opacity="1" stop-color="rgb(35.784912%, 0.131226%, 47.956848%)" offset="0.851562"/><stop stop-opacity="1" stop-color="rgb(35.484314%, 0.125122%, 47.773743%)" offset="0.859375"/><stop stop-opacity="1" stop-color="rgb(35.183716%, 0.119019%, 47.590637%)" offset="0.867188"/><stop stop-opacity="1" stop-color="rgb(34.883118%, 0.111389%, 47.406006%)" offset="0.875"/><stop stop-opacity="1" stop-color="rgb(34.58252%, 0.105286%, 47.2229%)" offset="0.882812"/><stop stop-opacity="1" stop-color="rgb(34.281921%, 0.0991821%, 47.039795%)" offset="0.890625"/><stop stop-opacity="1" stop-color="rgb(33.981323%, 0.0915527%, 46.855164%)" offset="0.898438"/><stop stop-opacity="1" stop-color="rgb(33.680725%, 0.0854492%, 46.672058%)" offset="0.90625"/><stop stop-opacity="1" stop-color="rgb(33.381653%, 0.0778198%, 46.488953%)" offset="0.914062"/><stop stop-opacity="1" stop-color="rgb(33.081055%, 0.0717163%, 46.304321%)" offset="0.921875"/><stop stop-opacity="1" stop-color="rgb(32.780457%, 0.0656128%, 46.121216%)" offset="0.929688"/><stop stop-opacity="1" stop-color="rgb(32.479858%, 0.0579834%, 45.936584%)" offset="0.9375"/><stop stop-opacity="1" stop-color="rgb(32.17926%, 0.0518799%, 45.753479%)" offset="0.945312"/><stop stop-opacity="1" stop-color="rgb(31.878662%, 0.0457764%, 45.570374%)" offset="0.953125"/><stop stop-opacity="1" stop-color="rgb(31.578064%, 0.038147%, 45.385742%)" offset="0.960938"/><stop stop-opacity="1" stop-color="rgb(31.277466%, 0.0320435%, 45.202637%)" offset="0.96875"/><stop stop-opacity="1" stop-color="rgb(30.976868%, 0.0244141%, 45.019531%)" offset="0.976562"/><stop stop-opacity="1" stop-color="rgb(30.67627%, 0.0183105%, 44.8349%)" offset="0.984375"/><stop stop-opacity="1" stop-color="rgb(30.375671%, 0.012207%, 44.651794%)" offset="0.992188"/><stop stop-opacity="1" stop-color="rgb(30.075073%, 0.00457764%, 44.468689%)" offset="1"/></linearGradient></defs><rect x="-144" width="1728" fill="#ffffff" y="-80.999999" height="971.999992" fill-opacity="1"/><rect x="-144" width="1728" fill="#141414" y="-80.999999" height="971.999992" fill-opacity="1"/><rect x="-144" width="1728" fill="#ffffff" y="-80.999999" height="971.999992" fill-opacity="1"/><rect x="-144" width="1728" fill="#141414" y="-80.999999" height="971.999992" fill-opacity="1"/><g clip-path="url(#id1)"><g clip-path="url(#id2)"><g clip-path="url(#id3)"><path fill="url(#id4)" d="M -363.484375 226.382812 L 402.457031 1456.195312 L 1803.484375 583.617188 L 1037.542969 -646.195312 Z M -363.484375 226.382812 " fill-rule="nonzero"/></g></g></g><path fill="#990780" d="M 359.945312 454.402344 C 424.484375 424.523438 420.5625 356.933594 383.144531 311.242188 C 358.625 281.324219 331.445312 258.519531 315.828125 234.648438 C 315.808594 234.609375 315.789062 234.589844 315.75 234.550781 C 303.597656 215.9375 298.476562 196.679688 307.164062 172.90625 C 313.683594 156.972656 334.183594 136.492188 354.449219 133.003906 C 359.472656 179.878906 407.546875 220.371094 437.089844 257.945312 C 492.429688 328.296875 477.226562 431.082031 359.945312 454.402344 " fill-opacity="1" fill-rule="nonzero"/><path fill="#4c0071" d="M 354.449219 133.003906 C 355.027344 137.273438 355.878906 141.496094 357.058594 145.628906 C 358.28125 149.746094 359.679688 153.8125 361.402344 157.746094 C 364.816406 165.621094 369.066406 173.113281 373.84375 180.238281 C 383.320312 194.566406 394.601562 207.597656 406.050781 220.425781 C 411.792969 226.832031 417.601562 233.1875 423.289062 239.667969 C 428.960938 246.164062 434.640625 252.664062 439.851562 259.59375 C 445.160156 266.460938 449.796875 273.839844 453.804688 281.542969 C 457.804688 289.242188 461.257812 297.265625 463.730469 305.609375 C 468.6875 322.246094 470.628906 339.960938 468.109375 357.226562 C 465.683594 374.4375 459.160156 391.230469 448.511719 405.027344 C 443.253906 411.945312 437.242188 418.296875 430.523438 423.785156 C 423.765625 429.222656 416.542969 434.0625 408.882812 438.089844 C 401.160156 441.976562 393.238281 445.488281 384.988281 448.042969 C 380.921875 449.503906 376.722656 450.507812 372.570312 451.652344 C 370.5 452.257812 368.371094 452.617188 366.265625 453.078125 L 359.945312 454.402344 C 376.734375 450.664062 393.21875 445.199219 408.253906 436.921875 C 415.773438 432.804688 422.847656 427.925781 429.425781 422.472656 C 435.96875 416.96875 441.78125 410.636719 446.835938 403.785156 C 457 390.082031 463.40625 373.753906 465.664062 356.894531 C 468.046875 340.003906 466.0625 322.679688 461.140625 306.398438 C 458.753906 298.210938 455.402344 290.320312 451.511719 282.730469 C 447.609375 275.148438 443.082031 267.863281 437.886719 261.082031 C 427.566406 247.410156 415.726562 234.855469 404.492188 221.796875 C 393.21875 208.78125 382.050781 195.539062 372.734375 180.957031 C 368.09375 173.675781 363.988281 166.023438 360.742188 158.019531 C 359.101562 154.019531 357.785156 149.898438 356.664062 145.734375 C 355.613281 141.546875 354.894531 137.289062 354.449219 133.003906 " fill-opacity="1" fill-rule="nonzero"/><path fill="#4c0071" d="M 355.121094 236.558594 C 339.183594 225.667969 330.695312 210.40625 330.695312 210.40625 C 328.886719 220.527344 329.0625 229.625 329.773438 236.460938 C 314.507812 216.449219 308.621094 199.019531 316.734375 176.609375 C 321.246094 165.71875 333.613281 152.601562 346.453125 146.378906 C 354.113281 177.003906 376.921875 204.535156 398.898438 229.390625 C 368.136719 223.34375 351.398438 205.621094 351.398438 205.621094 C 350.765625 219.347656 355.121094 236.558594 355.121094 236.558594 " fill-opacity="1" fill-rule="nonzero"/><path fill="#7a018d" d="M 441.402344 379.226562 C 432.339844 410.402344 412.746094 438.035156 359.945312 454.402344 C 424.484375 424.523438 420.5625 356.933594 383.144531 311.242188 C 358.625 281.324219 331.445312 258.519531 315.828125 234.648438 C 347.636719 280.144531 363.960938 273.132812 415.246094 325.914062 L 417.253906 312.757812 C 440.890625 347.363281 428.835938 388.777344 428.835938 388.777344 Z M 441.402344 379.226562 " fill-opacity="1" fill-rule="nonzero"/><path fill="#4c0071" d="M 355.121094 236.558594 C 339.183594 225.667969 330.695312 210.40625 330.695312 210.40625 C 328.886719 220.527344 329.0625 229.625 329.773438 236.460938 C 314.507812 216.449219 308.621094 199.019531 316.734375 176.609375 C 321.246094 165.71875 333.613281 152.601562 346.453125 146.378906 C 331.527344 164.261719 331.023438 182.613281 335.550781 195.183594 C 335.550781 195.183594 338.0625 185.128906 347.617188 179.09375 C 347.617188 179.09375 363.234375 215.625 398.898438 229.390625 C 368.136719 223.34375 351.398438 205.621094 351.398438 205.621094 C 350.765625 219.347656 355.121094 236.558594 355.121094 236.558594 " fill-opacity="1" fill-rule="nonzero"/><path fill="#ff4700" d="M 160.808594 199.0625 C 154.507812 202.808594 147.492188 207.824219 139.933594 214.296875 C 135.882812 205.699219 132.503906 195.179688 130.039062 184.039062 C 143.363281 166.800781 155.039062 159.878906 155.039062 159.878906 C 155.191406 168.445312 156.59375 183.714844 160.808594 199.0625 " fill-opacity="1" fill-rule="nonzero"/><path fill="#7a018d" d="M 160.808594 199.0625 C 154.507812 202.808594 147.492188 207.824219 139.933594 214.296875 C 135.882812 205.699219 132.503906 195.179688 130.039062 184.039062 C 143.363281 166.800781 155.039062 159.878906 155.039062 159.878906 C 155.191406 168.445312 156.59375 183.714844 160.808594 199.0625 " fill-opacity="1" fill-rule="nonzero"/><path fill="#4c0071" d="M 154.40625 200.921875 C 150.984375 190.742188 149.457031 180.515625 149.027344 174.75 C 149.027344 174.75 141.429688 179.859375 133.109375 191.976562 L 138.371094 211.425781 L 154.808594 204.933594 " fill-opacity="1" fill-rule="nonzero"/><path fill="#990780" d="M 209.457031 454.402344 C 207.824219 454.402344 206.1875 454.378906 204.59375 454.339844 C 55.742188 450.972656 35.851562 300.488281 87.824219 234.648438 C 101.453125 217.394531 92.691406 177.414062 134.757812 147.695312 C 134.046875 155.691406 133.96875 164.140625 134.480469 172.316406 C 135.070312 182.242188 136.527344 191.773438 138.835938 199.75 C 146.238281 195.21875 152.992188 191.851562 158.921875 189.507812 C 168.945312 185.46875 176.707031 184.230469 181.648438 184.546875 C 187.617188 184.960938 193.898438 190.632812 203.785156 193.03125 C 224.605469 189.507812 241.246094 183.484375 262.238281 172.90625 C 282.070312 227.183594 229.960938 257.96875 186.257812 311.242188 C 148.839844 356.933594 144.917969 424.523438 209.457031 454.402344 " fill-opacity="1" fill-rule="nonzero"/><path fill="#4c0071" d="M 204.59375 454.339844 L 191.75 453.847656 C 187.480469 453.484375 183.222656 452.941406 178.953125 452.496094 C 174.714844 451.847656 170.503906 451 166.269531 450.261719 C 162.109375 449.210938 157.929688 448.1875 153.792969 447.015625 C 137.367188 441.921875 121.789062 433.878906 108.320312 423.046875 C 101.753906 417.460938 95.414062 411.5 90.164062 404.613281 C 87.332031 401.339844 85.050781 397.652344 82.558594 394.121094 C 81.386719 392.304688 80.351562 390.40625 79.242188 388.550781 L 77.605469 385.753906 C 77.082031 384.808594 76.636719 383.820312 76.148438 382.859375 L 73.277344 377.042969 L 70.8125 371.046875 C 70.410156 370.046875 69.972656 369.054688 69.601562 368.042969 L 68.570312 364.96875 C 67.90625 362.914062 67.15625 360.886719 66.5625 358.808594 C 65.476562 354.628906 64.242188 350.480469 63.515625 346.214844 L 62.882812 343.039062 L 62.570312 341.445312 L 62.351562 339.84375 L 61.480469 333.421875 C 59.714844 316.242188 60.613281 298.75 64.636719 281.941406 C 66.640625 273.550781 69.261719 265.265625 72.90625 257.417969 C 76.507812 249.578125 80.726562 241.945312 86.152344 235.179688 C 91.5625 228.710938 93.5 220.207031 95.597656 211.96875 C 97.632812 203.664062 99.667969 195.261719 102.863281 187.242188 C 106.042969 179.230469 110.359375 171.65625 115.769531 164.960938 C 118.488281 161.625 121.476562 158.527344 124.644531 155.628906 C 127.816406 152.738281 131.257812 150.164062 134.757812 147.695312 C 127.867188 152.78125 121.570312 158.671875 116.332031 165.410156 C 111.128906 172.171875 107.050781 179.742188 104.101562 187.722656 C 101.085938 195.6875 99.175781 204.015625 97.265625 212.367188 C 96.296875 216.542969 95.296875 220.738281 93.910156 224.859375 C 93.191406 226.910156 92.417969 228.960938 91.378906 230.914062 C 90.90625 231.90625 90.296875 232.84375 89.707031 233.785156 L 87.808594 236.449219 L 84.109375 241.617188 L 80.808594 247.050781 L 79.984375 248.410156 L 79.25 249.816406 L 77.789062 252.640625 L 76.324219 255.46875 C 75.871094 256.421875 75.472656 257.410156 75.042969 258.378906 C 71.507812 266.09375 68.972656 274.246094 67.039062 282.503906 C 63.160156 299.042969 62.367188 316.257812 64.171875 333.125 L 65 339.4375 L 65.203125 341.015625 L 65.507812 342.578125 L 66.113281 345.703125 C 66.804688 349.894531 68.003906 353.972656 69.042969 358.085938 C 69.617188 360.128906 70.347656 362.121094 70.992188 364.144531 L 71.988281 367.167969 C 72.34375 368.167969 72.773438 369.140625 73.160156 370.125 L 75.554688 376.023438 L 78.34375 381.742188 C 78.820312 382.691406 79.25 383.664062 79.761719 384.589844 L 81.355469 387.34375 C 82.4375 389.167969 83.441406 391.039062 84.582031 392.828125 C 87.015625 396.300781 89.230469 399.933594 92 403.160156 C 97.140625 409.921875 103.277344 415.84375 109.644531 421.445312 C 122.730469 432.289062 137.988281 440.445312 154.195312 445.753906 C 170.398438 451.15625 187.496094 453.582031 204.59375 454.339844 " fill-opacity="1" fill-rule="nonzero"/><path fill="#7a018d" d="M 209.457031 454.402344 C 59.328125 438.035156 73.40625 274.292969 136.921875 244.121094 C 128.378906 242.617188 112.625 242.785156 112.625 242.785156 C 134.078125 217.980469 235.316406 217.644531 262.238281 172.90625 C 282.070312 227.183594 229.960938 257.96875 186.257812 311.242188 C 148.839844 356.933594 144.917969 424.523438 209.457031 454.402344 " fill-opacity="1" fill-rule="nonzero"/><path fill="#4c0071" d="M 210.757812 268.957031 C 200.105469 280.101562 189.113281 291.625 178.339844 304.761719 C 154.253906 334.144531 144.152344 370.304688 151.28125 401.460938 C 154.453125 415.226562 160.734375 427.519531 169.914062 438.035156 C 138.203125 427.359375 113.605469 374.777344 121.460938 330.777344 C 116.105469 339.050781 111.65625 348.050781 108.605469 357.425781 C 97.199219 243.117188 234.765625 236.578125 255.601562 187.460938 C 260.328125 215.269531 241.738281 236.519531 210.757812 268.957031 " fill-opacity="1" fill-rule="nonzero"/><path fill="#4c0071" d="M 121.460938 330.777344 C 116.316406 339.222656 112.03125 348.191406 109.160156 357.609375 L 108.332031 360.324219 L 108.015625 357.484375 C 107.460938 352.496094 107.152344 347.472656 107.167969 342.4375 C 107.214844 337.40625 107.550781 332.371094 108.246094 327.371094 C 109.65625 317.378906 112.625 307.5625 117.214844 298.527344 C 121.757812 289.46875 127.816406 281.21875 134.789062 273.910156 C 138.269531 270.25 141.976562 266.808594 145.832031 263.558594 C 149.707031 260.332031 153.742188 257.3125 157.871094 254.433594 C 174.425781 242.960938 192.339844 233.847656 209.984375 224.523438 C 218.78125 219.8125 227.492188 214.925781 235.632812 209.203125 C 239.675781 206.3125 243.585938 203.203125 247.039062 199.621094 C 248.785156 197.847656 250.351562 195.914062 251.835938 193.914062 C 253.273438 191.882812 254.539062 189.726562 255.601562 187.460938 C 254.652344 189.773438 253.488281 192.003906 252.136719 194.121094 C 250.738281 196.203125 249.207031 198.207031 247.515625 200.066406 C 244.15625 203.8125 240.320312 207.097656 236.34375 210.164062 C 228.320312 216.234375 219.609375 221.269531 210.90625 226.207031 L 184.691406 240.757812 C 176.015625 245.675781 167.480469 250.832031 159.367188 256.570312 C 155.308594 259.4375 151.363281 262.453125 147.570312 265.636719 C 143.757812 268.800781 140.101562 272.148438 136.664062 275.707031 C 129.792969 282.8125 123.828125 290.8125 119.335938 299.609375 C 114.855469 308.398438 111.75 317.886719 110.128906 327.660156 C 109.339844 332.550781 108.902344 337.5 108.742188 342.460938 C 108.609375 347.429688 108.847656 352.402344 109.1875 357.367188 L 108.042969 357.242188 C 111.308594 347.84375 115.867188 338.9375 121.460938 330.777344 " fill-opacity="1" fill-rule="nonzero"/><path fill="#990780" d="M 259.945312 436.480469 L 254.492188 441.933594 C 254.0625 441.503906 253.65625 441.078125 253.226562 440.671875 L 214.550781 401.992188 L 190.542969 378.011719 L 214.550781 353.980469 L 238.53125 378.011719 L 247.683594 387.136719 L 259.945312 399.378906 C 270.179688 409.632812 270.179688 426.246094 259.945312 436.480469 " fill-opacity="1" fill-rule="nonzero"/><path fill="#7a018d" d="M 253.226562 440.671875 L 214.550781 401.992188 L 190.542969 378.007812 L 214.550781 353.980469 L 238.53125 378.007812 L 247.683594 387.136719 C 234.089844 401.15625 227.554688 414.367188 253.226562 440.671875 " fill-opacity="1" fill-rule="nonzero"/><path fill="#990780" d="M 259.945312 356.59375 L 231.339844 385.199219 C 222.347656 394.191406 222.054688 408.59375 230.507812 417.90625 C 230.753906 418.199219 231.046875 418.492188 231.339844 418.785156 L 190.542969 378.007812 L 214.550781 353.980469 L 254.492188 314.039062 L 259.945312 319.492188 C 270.179688 329.726562 270.179688 346.339844 259.945312 356.59375 " fill-opacity="1" fill-rule="nonzero"/><path fill="#7a018d" d="M 259.945312 356.59375 L 231.339844 385.199219 C 222.347656 394.191406 222.054688 408.59375 230.507812 417.90625 C 185.785156 371.96875 261.230469 346.40625 254.492188 314.039062 L 259.945312 319.492188 C 270.179688 329.726562 270.179688 346.339844 259.945312 356.59375 " fill-opacity="1" fill-rule="nonzero"/><path fill="#990780" d="M 259.945312 356.59375 C 255.832031 361.5 251.527344 366.222656 247.160156 370.871094 C 242.800781 375.535156 238.332031 380.085938 233.839844 384.617188 L 232.15625 386.292969 C 231.65625 386.859375 231.117188 387.390625 230.644531 387.972656 C 230.203125 388.582031 229.710938 389.160156 229.308594 389.792969 C 228.929688 390.445312 228.492188 391.0625 228.15625 391.738281 C 226.710938 394.390625 225.859375 397.351562 225.515625 400.375 C 224.871094 406.445312 226.617188 412.804688 230.507812 417.90625 C 225.753906 413.574219 223.085938 406.882812 223.40625 400.226562 C 223.515625 396.890625 224.40625 393.585938 225.871094 390.5625 C 226.210938 389.792969 226.699219 389.101562 227.113281 388.367188 C 227.554688 387.652344 228.089844 387 228.578125 386.3125 C 229.101562 385.65625 229.6875 385.046875 230.242188 384.417969 C 230.804688 383.816406 231.363281 383.273438 231.925781 382.699219 C 236.453125 378.207031 241.003906 373.738281 245.667969 369.382812 C 250.320312 365.011719 255.039062 360.707031 259.945312 356.59375 " fill-opacity="1" fill-rule="nonzero"/><path fill="#990780" d="M 309.164062 319.496094 L 314.617188 314.039062 C 315.046875 314.46875 315.453125 314.894531 315.878906 315.300781 L 354.558594 353.980469 L 378.566406 377.964844 L 354.558594 401.992188 L 330.574219 377.964844 L 321.425781 368.835938 L 309.164062 356.597656 C 298.929688 346.339844 298.929688 329.726562 309.164062 319.496094 " fill-opacity="1" fill-rule="nonzero"/><path fill="#7a018d" d="M 315.878906 315.300781 L 354.558594 353.980469 L 378.566406 377.964844 L 354.558594 401.992188 L 330.574219 377.964844 L 321.425781 368.835938 C 335.015625 354.816406 341.554688 341.605469 315.878906 315.300781 " fill-opacity="1" fill-rule="nonzero"/><path fill="#990780" d="M 309.164062 399.378906 L 337.765625 370.773438 C 346.761719 361.78125 347.054688 347.378906 338.601562 338.070312 C 338.351562 337.773438 338.058594 337.484375 337.765625 337.1875 L 378.566406 377.964844 L 354.558594 401.992188 L 314.617188 441.933594 L 309.164062 436.480469 C 298.929688 426.246094 298.929688 409.632812 309.164062 399.378906 " fill-opacity="1" fill-rule="nonzero"/><path fill="#7a018d" d="M 309.164062 399.378906 L 337.765625 370.773438 C 346.761719 361.78125 347.054688 347.378906 338.601562 338.070312 C 383.320312 384.007812 307.878906 409.566406 314.617188 441.933594 L 309.164062 436.480469 C 298.929688 426.246094 298.929688 409.632812 309.164062 399.378906 " fill-opacity="1" fill-rule="nonzero"/><path fill="#990780" d="M 309.164062 399.375 C 313.277344 394.46875 317.578125 389.75 321.949219 385.101562 C 326.304688 380.4375 330.777344 375.886719 335.265625 371.355469 L 336.953125 369.675781 C 337.453125 369.113281 337.992188 368.582031 338.464844 367.996094 C 338.90625 367.386719 339.398438 366.8125 339.800781 366.175781 C 340.179688 365.527344 340.617188 364.90625 340.953125 364.234375 C 342.398438 361.582031 343.25 358.621094 343.589844 355.597656 C 344.238281 349.527344 342.488281 343.167969 338.601562 338.066406 C 343.355469 342.398438 346.023438 349.089844 345.699219 355.746094 C 345.589844 359.078125 344.703125 362.386719 343.234375 365.410156 C 342.898438 366.179688 342.410156 366.871094 341.996094 367.605469 C 341.554688 368.320312 341.015625 368.972656 340.53125 369.65625 C 340.007812 370.316406 339.417969 370.921875 338.867188 371.554688 C 338.300781 372.152344 337.746094 372.699219 337.183594 373.273438 C 332.652344 377.765625 328.101562 382.230469 323.441406 386.589844 C 318.789062 390.960938 314.070312 395.261719 309.164062 399.375 " fill-opacity="1" fill-rule="nonzero"/></svg>