<svg xmlns="http://www.w3.org/2000/svg" xmlns:xlink="http://www.w3.org/1999/xlink" width="1920" zoomAndPan="magnify" viewBox="0 0 1440 809.999993" height="1080" preserveAspectRatio="xMidYMid meet" version="1.0"><defs><clipPath id="id1"><path d="M 0 332 L 1440 332 L 1440 746 L 0 746 Z M 0 332 " clip-rule="nonzero"/></clipPath><clipPath id="id2"><path d="M 58.125 99.679688 L 1572.886719 371.730469 L 1474.117188 921.679688 L -40.648438 649.628906 Z M 58.125 99.679688 " clip-rule="nonzero"/></clipPath><clipPath id="id3"><path d="M 58.125 99.679688 L 1572.886719 371.730469 L 1474.117188 921.679688 L -40.648438 649.628906 Z M 58.125 99.679688 " clip-rule="nonzero"/></clipPath><clipPath id="id4"><path d="M -18.851562 541.027344 L -20.445312 539.976562 C 36.867188 442.078125 152.964844 368.480469 289.6875 343.140625 C 396.132812 323.308594 514.429688 331.0625 661.464844 367.398438 C 720.707031 382.109375 780.15625 399.914062 837.632812 417.367188 C 897.777344 435.550781 960.097656 454.378906 1022.34375 469.378906 C 1094.074219 486.84375 1188.34375 505.046875 1281.597656 492.011719 C 1381.085938 478.3125 1469.4375 428.753906 1554.882812 381.222656 C 1560.28125 378.117188 1565.921875 375.058594 1571.566406 371.996094 L 1572.535156 373.699219 C 1566.890625 376.757812 1561.496094 379.863281 1555.851562 382.921875 C 1470.117188 430.65625 1381.761719 480.214844 1281.984375 494.117188 C 1188.4375 507.355469 1093.96875 488.859375 1021.945312 471.597656 C 959.699219 456.601562 897.378906 437.769531 837.234375 419.585938 C 779.757812 402.136719 720.308594 384.332031 661.3125 369.660156 C 514.527344 333.371094 396.722656 325.707031 290.320312 345.289062 C 153.644531 370.386719 38.125 443.574219 -18.851562 541.027344 Z M 30.9375 487.855469 C 50.558594 470.757812 71.644531 455.453125 94.144531 442.183594 C 160.125 402.351562 230.949219 373.832031 298.917969 359.816406 C 406.992188 337.988281 531.207031 344.003906 667.925781 378.230469 C 677.660156 380.742188 687.394531 383.257812 697.332031 386.058594 C 743.453125 398.671875 789.289062 414.285156 833.644531 429.632812 C 869.140625 441.863281 905.621094 454.269531 942.117188 465.152344 C 972.089844 474.101562 998.785156 481.441406 1023.144531 487.597656 C 1078.234375 501.308594 1123.71875 508.96875 1166.746094 511.859375 C 1204.953125 514.648438 1243.757812 512.707031 1281.789062 506.554688 C 1321.183594 499.882812 1362.429688 487.179688 1407.515625 467.273438 C 1447.582031 449.777344 1487.328125 428.402344 1525.664062 407.792969 C 1540.308594 399.988281 1555.246094 391.976562 1570.136719 384.214844 L 1569.167969 382.511719 C 1554.277344 390.277344 1539.339844 398.285156 1524.695312 406.09375 C 1448.273438 447.355469 1369.117188 489.652344 1281.355469 504.695312 C 1243.574219 510.894531 1205.0625 512.632812 1166.851562 509.84375 C 1124.070312 506.996094 1078.589844 499.335938 1023.746094 485.667969 C 999.140625 479.46875 972.691406 472.171875 942.71875 463.226562 C 906.21875 452.339844 869.738281 439.933594 834.246094 427.703125 C 789.890625 412.355469 743.808594 396.695312 697.6875 384.085938 C 687.996094 381.328125 678.015625 378.769531 668.277344 376.257812 C 531.269531 342.234375 406.855469 335.925781 298.484375 357.957031 C 230.273438 371.929688 159.203125 400.40625 93.179688 440.480469 C 70.675781 453.75 49.300781 469.257812 29.675781 486.355469 C 9.472656 503.855469 -7.679688 524.195312 -21.683594 546.882812 L -20.089844 547.933594 C -6.375 525.449219 11.023438 505.152344 30.9375 487.855469 Z M 32.796875 497.351562 C 54.59375 480.902344 77.210938 468.414062 98.527344 457.480469 C 156.101562 427.597656 231.886719 391.3125 308.003906 374.433594 C 418.589844 350 545.667969 354.238281 675.273438 386.933594 C 685.011719 389.445312 694.746094 391.957031 704.4375 394.71875 C 748.785156 407.265625 792.585938 424.296875 834.992188 440.566406 C 870.714844 454.367188 907.625 468.632812 944.773438 480.140625 C 974.164062 489.492188 1000.566406 497.035156 1025.421875 503.28125 C 1079.234375 517.019531 1125.996094 524.652344 1168.414062 526.671875 C 1206.507812 528.675781 1244.703125 525.863281 1282.171875 518.589844 C 1360.042969 503.300781 1430.9375 465.878906 1499.59375 429.589844 C 1521.832031 417.796875 1545.140625 405.691406 1568.074219 394.28125 L 1567.351562 392.625 C 1544.171875 403.992188 1521.109375 416.140625 1498.875 427.929688 C 1430.261719 463.976562 1359.613281 501.441406 1281.988281 516.773438 C 1244.765625 524.089844 1206.617188 526.660156 1168.769531 524.699219 C 1126.347656 522.679688 1079.589844 515.046875 1026.023438 501.351562 C 1001.167969 495.105469 975.054688 487.363281 945.621094 478.257812 C 908.71875 466.792969 871.808594 452.527344 836.085938 438.726562 C 793.679688 422.457031 749.878906 405.425781 705.53125 392.878906 C 695.839844 390.117188 686.105469 387.605469 676.367188 385.09375 C 546.269531 352.308594 418.941406 348.027344 308.113281 372.417969 C 231.746094 389.25 155.917969 425.78125 98.34375 455.664062 C 76.984375 466.847656 54.367188 479.332031 32.566406 495.785156 C 8.394531 514.097656 -9.519531 533.03125 -22.140625 553.675781 L -20.546875 554.722656 C -8.710938 534.195312 8.914062 515.464844 32.796875 497.351562 Z M 34.902344 506.894531 C 56.707031 493.246094 80.203125 482.953125 102.910156 472.777344 C 115.34375 467.371094 127.570312 461.675781 140.828125 455.910156 C 197.894531 430.265625 256.707031 403.40625 317.09375 389.050781 C 431.503906 361.738281 557.90625 364.074219 682.332031 395.839844 C 692.070312 398.351562 701.761719 401.109375 711.453125 403.871094 C 754.523438 416.441406 797.070312 434.773438 837.933594 452.550781 C 873.390625 467.828125 909.785156 483.53125 946.847656 495.535156 C 975.699219 505.042969 1001.769531 513.035156 1026.824219 519.570312 C 1080.054688 533.714844 1126.859375 541.101562 1169.457031 542.132812 C 1207.4375 543.351562 1245.273438 539.710938 1282.179688 531.320312 C 1351.484375 515.507812 1415.527344 482.207031 1477.378906 449.78125 C 1506.085938 434.570312 1535.867188 419.046875 1565.832031 405.335938 L 1565.113281 403.679688 C 1535.144531 417.390625 1505.363281 432.914062 1476.410156 448.082031 C 1414.808594 480.550781 1351.011719 513.894531 1281.746094 529.460938 C 1244.84375 537.851562 1207.253906 541.539062 1169.519531 540.363281 C 1126.96875 539.082031 1080.410156 531.738281 1027.136719 517.84375 C 1002.324219 511.351562 976.011719 503.316406 947.40625 493.851562 C 910.589844 481.894531 873.945312 466.148438 838.738281 450.914062 C 797.828125 433.382812 755.28125 415.050781 712.007812 402.1875 C 702.316406 399.429688 692.625 396.667969 682.890625 394.15625 C 557.96875 362.304688 431.320312 359.921875 316.621094 387.4375 C 256.1875 402.039062 197.175781 428.609375 140.0625 454.5 C 127.007812 460.558594 114.578125 465.960938 102.148438 471.367188 C 79.191406 481.5 55.695312 491.792969 33.84375 505.6875 C 7.71875 522.125 -11.296875 540.09375 -24.164062 560.695312 L -22.570312 561.742188 C -9.703125 541.144531 9.066406 523.128906 34.902344 506.894531 Z M 36.964844 516.683594 C 55.214844 507.234375 74.007812 500.425781 93.878906 493.300781 C 98.269531 491.546875 102.859375 490.078125 107.496094 488.367188 C 132.832031 479.167969 158.523438 468 185.871094 456.109375 C 231.449219 436.292969 278.640625 416 326.183594 403.664062 C 442.605469 373.660156 571.671875 373.929688 689.683594 404.542969 C 699.417969 407.054688 709.109375 409.8125 718.511719 412.773438 C 761 425.75 802.292969 445.386719 842.398438 464.554688 C 876.894531 480.933594 912.777344 498.070312 948.96875 510.679688 C 978.46875 520.816406 1004.496094 529.050781 1028.273438 535.613281 C 1081.210938 549.957031 1127.816406 557.054688 1170.5 557.59375 C 1208.121094 557.984375 1245.886719 553.3125 1282.226562 543.800781 C 1344.695312 527.78125 1402.648438 497.203125 1458.652344 467.546875 C 1492.667969 449.726562 1527.84375 431.097656 1563.683594 415.894531 L 1562.960938 414.238281 C 1527.125 429.441406 1491.988281 447.824219 1457.929688 465.890625 C 1401.972656 495.300781 1344.019531 525.878906 1282.042969 541.988281 C 1245.703125 551.5 1208.226562 555.96875 1170.855469 555.621094 C 1128.414062 555.128906 1082.0625 548.074219 1029.121094 533.730469 C 1005.34375 527.167969 979.273438 519.175781 949.769531 509.042969 C 913.582031 496.433594 877.941406 479.339844 843.203125 462.917969 C 803.097656 443.75 761.804688 424.113281 719.066406 411.09375 C 709.667969 408.132812 699.730469 405.328125 690.242188 402.859375 C 571.980469 372.203125 442.378906 372.089844 325.710938 402.050781 C 278.164062 414.386719 230.972656 434.679688 185.148438 454.453125 C 157.84375 466.097656 132.15625 477.265625 106.777344 486.710938 C 102.140625 488.421875 97.503906 490.136719 93.15625 491.644531 C 73.289062 498.769531 54.449219 505.824219 35.996094 514.984375 C 7.960938 529.296875 -11.910156 546.347656 -25.113281 567.398438 L -23.519531 568.445312 C -10.652344 547.847656 9.21875 530.792969 36.964844 516.683594 Z M 38.578125 526.136719 C 54.816406 519.382812 71.394531 514.976562 88.847656 509.964844 C 96.085938 507.953125 103.859375 505.789062 111.386719 503.574219 C 144.769531 493.53125 178.453125 478.960938 214.289062 463.757812 C 253.488281 446.867188 294.046875 429.460938 334.488281 418.394531 C 454.246094 385.421875 582.632812 383.789062 696.25 413.359375 C 705.492188 415.78125 714.9375 418.496094 725.03125 421.835938 C 766.691406 435.175781 806.734375 456.113281 845.339844 476.539062 C 879.320312 494.351562 914.695312 512.925781 950.546875 525.984375 C 980.410156 536.945312 1005.449219 545.007812 1029.226562 551.570312 C 1081.875 566.117188 1128.230469 573.167969 1171.09375 572.71875 C 1208.601562 572.328125 1245.757812 566.78125 1281.785156 556.195312 C 1338.199219 539.851562 1391.132812 511.683594 1442.414062 484.234375 C 1480.75 463.625 1520.203125 442.453125 1560.992188 426.613281 L 1560.273438 424.957031 C 1519.480469 440.796875 1479.984375 462.214844 1441.445312 482.53125 C 1390.414062 510.027344 1337.476562 538.195312 1281.355469 554.335938 C 1245.574219 564.96875 1208.417969 570.511719 1171.203125 570.703125 C 1128.585938 571.195312 1082.476562 564.1875 1030.074219 549.683594 C 1006.296875 543.125 981.304688 534.816406 951.394531 524.097656 C 915.542969 511.039062 880.414062 492.511719 846.433594 474.699219 C 807.582031 454.230469 767.539062 433.289062 725.632812 419.910156 C 715.535156 416.566406 706.09375 413.851562 696.851562 411.429688 C 583.03125 381.570312 454.105469 383.363281 334.304688 416.578125 C 293.574219 427.847656 253.011719 445.257812 213.816406 462.148438 C 178.183594 477.640625 144.25 492.167969 111.160156 502.007812 C 103.339844 504.421875 95.855469 506.386719 88.621094 508.394531 C 71.210938 513.160156 54.585938 517.8125 38.101562 524.527344 C 8.402344 536.757812 -12.613281 553.09375 -26.308594 574.054688 L -24.714844 575.105469 C -11.558594 554.300781 9.414062 538.210938 38.578125 526.136719 Z M 40.683594 535.679688 C 55.535156 530.964844 70.28125 528.269531 85.855469 525.210938 C 95.601562 523.398438 105.640625 521.382812 116.015625 518.917969 C 155.363281 509.691406 194.605469 492.554688 236.578125 474.378906 C 271.671875 459.046875 307.84375 443.394531 343.871094 432.808594 C 466.464844 396.78125 594.222656 392.996094 703.601562 422.0625 C 713.089844 424.527344 722.734375 427.535156 732.136719 430.496094 C 773.011719 443.945312 812.003906 466.476562 849.601562 488.25 C 883.070312 507.5 917.4375 527.417969 952.957031 540.925781 C 982.980469 552.425781 1007.972656 560.734375 1031.210938 567.453125 C 1083.527344 582.449219 1129.96875 589.011719 1172.429688 587.980469 C 1209.820312 586.804688 1246.664062 580.183594 1282.125 568.476562 C 1333.226562 551.941406 1381.480469 525.734375 1428.121094 499.996094 C 1470.195312 477.003906 1513.726562 453 1558.886719 436.925781 L 1558.210938 435.023438 C 1512.757812 451.300781 1469.273438 475.058594 1427.15625 498.296875 C 1380.558594 523.785156 1332.503906 550.285156 1281.695312 566.617188 C 1246.480469 578.367188 1209.683594 584.742188 1172.535156 585.960938 C 1130.035156 587.238281 1083.882812 580.476562 1031.8125 565.527344 C 1008.574219 558.804688 983.828125 550.542969 953.804688 539.042969 C 918.285156 525.535156 883.917969 505.617188 850.695312 486.410156 C 812.851562 464.59375 773.859375 442.0625 732.734375 428.566406 C 723.378906 425.359375 713.691406 422.601562 703.953125 420.089844 C 594.328125 390.980469 466.035156 394.925781 343.191406 430.902344 C 306.921875 441.445312 270.703125 457.34375 235.609375 472.679688 C 193.882812 490.898438 154.644531 508.035156 115.585938 517.058594 C 105.210938 519.523438 95.171875 521.539062 85.425781 523.351562 C 69.851562 526.410156 55.105469 529.105469 40.253906 533.820312 C 9.222656 543.523438 -13.472656 559.304688 -27.503906 580.714844 L -25.910156 581.765625 C -12.257812 561.050781 10.148438 545.472656 40.683594 535.679688 Z M 42.496094 545.425781 C 56.589844 542.101562 70.332031 540.75 85.144531 539.085938 C 96.578125 537.828125 108.253906 536.617188 120.355469 534.460938 C 164.257812 526.816406 207.730469 507.386719 254.179688 486.960938 C 286.296875 472.617188 319.734375 458.003906 352.667969 447.625 C 478.105469 408.546875 605.183594 402.859375 710.660156 430.964844 C 719.902344 433.390625 729.300781 436.351562 739.148438 439.648438 C 779.445312 453.503906 817.183594 477.335938 854.023438 500.5 C 886.734375 521.140625 920.339844 542.449219 955.277344 556.363281 C 984.761719 568.023438 1009.421875 576.777344 1032.90625 583.542969 C 1085.421875 598.828125 1131.621094 605.34375 1173.761719 603.238281 C 1210.792969 601.234375 1247.277344 593.785156 1282.175781 580.960938 C 1328.703125 564.367188 1372.902344 539.464844 1415.398438 515.53125 C 1460.472656 490.023438 1507.246094 463.546875 1556.488281 447.441406 L 1555.8125 445.539062 C 1506.324219 461.601562 1459.550781 488.074219 1414.230469 513.539062 C 1371.6875 537.722656 1327.78125 562.421875 1281.253906 579.011719 C 1246.644531 591.636719 1210.160156 599.085938 1173.378906 601.132812 C 1131.234375 603.238281 1085.53125 596.8125 1033.015625 581.523438 C 1009.527344 574.761719 984.871094 566.003906 955.632812 554.390625 C 920.695312 540.476562 887.089844 519.167969 854.625 498.570312 C 817.785156 475.410156 779.84375 451.285156 739.550781 437.425781 C 729.699219 434.132812 720.300781 431.171875 711.058594 428.746094 C 605.378906 400.347656 477.964844 406.484375 352.035156 445.476562 C 318.855469 455.808594 285.664062 470.46875 253.300781 484.765625 C 207.097656 505.234375 163.625 524.667969 120.015625 532.109375 C 107.914062 534.261719 96.234375 535.476562 84.804688 536.730469 C 69.988281 538.398438 56.25 539.75 42.15625 543.074219 C 19.839844 548.230469 -10.804688 560.039062 -28.902344 587.082031 L -27.308594 588.132812 C -9.386719 562.074219 20.46875 550.378906 42.496094 545.425781 Z M 44.355469 554.925781 C 57.984375 552.789062 71.296875 552.382812 85.601562 552.148438 C 98.132812 551.855469 111.203125 551.402344 124.738281 549.757812 C 172.613281 544.101562 222.222656 521.699219 269.925781 499.972656 C 299.890625 486.261719 330.933594 472.234375 361.757812 462.242188 C 489.742188 420.3125 616.234375 412.226562 717.761719 439.625 C 727.207031 442.339844 736.605469 445.300781 745.960938 448.507812 C 785.472656 462.476562 822.410156 487.949219 857.953125 512.660156 C 889.65625 534.648438 922.75 557.394531 957.105469 571.710938 C 982.195312 582.324219 1007.996094 591.796875 1034.0625 599.789062 C 1086 615.480469 1131.746094 621.660156 1174.558594 618.65625 C 1211.476562 615.867188 1247.597656 607.589844 1281.933594 593.644531 C 1324.382812 577.085938 1365.019531 553.578125 1404.042969 530.550781 C 1451.824219 502.726562 1501.105469 473.644531 1553.753906 458.40625 L 1553.324219 456.546875 C 1500.628906 472.03125 1451.105469 501.070312 1403.324219 528.890625 C 1364.34375 551.675781 1323.660156 575.425781 1281.503906 591.785156 C 1247.457031 605.527344 1211.292969 614.054688 1174.667969 616.640625 C 1132.390625 619.484375 1086.644531 613.304688 1034.914062 597.902344 C 1008.84375 589.914062 983.042969 580.441406 957.953125 569.828125 C 923.597656 555.511719 890.75 532.808594 859 511.070312 C 823.210938 486.3125 786.277344 460.839844 746.519531 446.824219 C 737.164062 443.617188 727.765625 440.65625 718.074219 437.898438 C 616.34375 410.207031 489.359375 418.207031 360.835938 460.292969 C 329.964844 470.53125 298.921875 484.558594 268.957031 498.269531 C 221.253906 519.996094 171.890625 542.445312 124.308594 547.898438 C 110.773438 549.542969 97.992188 549.792969 85.417969 550.335938 C 71.316406 550.855469 57.753906 551.222656 43.925781 553.066406 C 1.523438 559.453125 -19.820312 579.039062 -29.984375 594.523438 L -28.390625 595.574219 C -10.25 568.285156 21.316406 558.425781 44.355469 554.925781 Z M 46.460938 564.46875 C 59.867188 563.566406 73.003906 564.144531 86.636719 564.808594 C 100.269531 565.476562 114.394531 566.230469 129.121094 565.058594 C 180.632812 561.835938 233.152344 537.410156 284.300781 513.5 C 312.65625 500.265625 341.835938 486.667969 370.890625 476.609375 C 538.140625 418.820312 655.953125 429.289062 725.113281 448.328125 C 734.558594 451.042969 743.957031 454.003906 753.023438 457.414062 C 791.949219 471.785156 827.878906 498.605469 862.417969 524.664062 C 893.40625 547.796875 925.496094 571.890625 959.515625 586.652344 C 984.269531 597.71875 1010.027344 607.4375 1035.847656 615.382812 C 1087.492188 631.277344 1133.28125 637.210938 1175.691406 633.625 C 1210.34375 630.683594 1245.074219 621.648438 1282.074219 605.636719 C 1320.933594 589.195312 1358.097656 566.59375 1394.101562 544.800781 C 1444.09375 514.574219 1495.835938 483.136719 1551.691406 468.476562 L 1551.261719 466.617188 C 1495.15625 481.234375 1443.417969 512.671875 1393.132812 543.101562 C 1357.132812 564.890625 1319.964844 587.492188 1281.351562 603.976562 C 1244.398438 619.742188 1209.914062 628.824219 1175.507812 631.808594 C 1133.101562 635.394531 1087.554688 629.507812 1036.15625 613.65625 C 1010.378906 605.464844 984.621094 595.746094 959.824219 584.925781 C 926.054688 570.207031 893.964844 546.113281 862.972656 522.984375 C 828.191406 496.878906 792.058594 469.769531 752.839844 455.597656 C 743.527344 452.144531 734.128906 449.183594 724.683594 446.46875 C 598.726562 411.882812 462.015625 442.824219 369.429688 474.820312 C 340.375 484.875 311.195312 498.472656 282.839844 511.710938 C 232.226562 535.460938 179.710938 559.886719 128.445312 563.152344 C 113.761719 564.082031 99.636719 563.328125 86.207031 562.949219 C 72.328125 562.238281 59.4375 561.707031 45.785156 562.566406 C 25.65625 564.039062 -10.980469 570.953125 -31.921875 601.050781 L -30.328125 602.101562 C -9.273438 572.785156 26.828125 566.03125 46.460938 564.46875 Z M 48.570312 574.011719 C 62.085938 573.894531 75.046875 575.457031 88.503906 577.109375 C 102.945312 578.941406 117.925781 580.613281 133.75 580.398438 C 188.609375 579.8125 244.082031 553.117188 297.5625 527.59375 C 324.589844 514.628906 352.203125 501.257812 379.980469 491.226562 C 473.953125 457.1875 611.394531 423.574219 732.214844 456.984375 C 741.210938 459.363281 750.566406 462.574219 760.125 466.070312 C 798.269531 480.558594 833.148438 508.972656 866.925781 536.421875 C 897.15625 560.945312 928.488281 586.425781 961.925781 601.597656 C 986.632812 612.910156 1012.054688 623.074219 1037.832031 631.269531 C 1089.140625 647.609375 1134.976562 653.296875 1177.316406 648.683594 C 1211.316406 645.113281 1245.976562 635.046875 1282.660156 617.960938 C 1318.226562 601.4375 1352.65625 579.871094 1385.679688 559.070312 C 1437.640625 526.398438 1491.101562 492.46875 1550.035156 479.125 L 1549.605469 477.265625 C 1490.628906 490.855469 1436.671875 524.699219 1384.667969 557.617188 C 1351.644531 578.417969 1317.214844 599.980469 1281.648438 616.503906 C 1245.210938 633.636719 1210.84375 643.503906 1176.84375 647.070312 C 1134.503906 651.683594 1089.203125 645.839844 1038.097656 629.789062 C 1012.367188 621.347656 986.898438 611.429688 962.4375 600.160156 C 929.246094 585.035156 897.871094 559.800781 867.886719 535.320312 C 834.109375 507.871094 798.984375 479.414062 760.636719 464.636719 C 751.078125 461.136719 741.722656 457.929688 732.480469 455.503906 C 611.210938 421.761719 473.230469 455.53125 378.96875 489.769531 C 351.4375 499.847656 323.578125 513.171875 296.546875 526.136719 C 243.316406 551.707031 188.132812 578.203125 133.523438 578.832031 C 117.695312 579.042969 103.007812 577.167969 88.523438 575.585938 C 74.820312 573.890625 62.105469 572.367188 48.339844 572.441406 C 31.527344 572.476562 -10.097656 575.949219 -32.714844 608.289062 L -31.117188 609.339844 C -8.839844 577.449219 32 574.089844 48.570312 574.011719 Z M 50.136719 583.710938 C 63.726562 584.625 76.554688 586.929688 90.078125 589.613281 C 105.375 592.359375 121.117188 595.441406 137.554688 596.101562 C 195.710938 598.402344 253.601562 569.59375 309.496094 541.957031 C 335.207031 529.261719 361.742188 516.207031 387.996094 506.15625 C 527.121094 453.246094 644.902344 439.777344 738.492188 466.003906 C 747.933594 468.71875 757.042969 471.882812 766.355469 475.335938 C 803.917969 490.230469 837.792969 519.988281 870.808594 548.828125 C 900.28125 574.742188 930.605469 601.574219 963.460938 617.148438 C 987.835938 628.90625 1013.257812 639.074219 1038.699219 647.714844 C 1089.960938 664.304688 1135.351562 669.65625 1177.820312 664.300781 C 1211.171875 660.109375 1245.222656 649.167969 1282.128906 630.847656 C 1314.847656 614.578125 1346.589844 593.800781 1377.214844 573.589844 C 1430.652344 538.382812 1485.789062 502.207031 1547.054688 490.042969 L 1546.625 488.183594 C 1484.820312 500.507812 1429.390625 536.882812 1375.957031 572.089844 C 1345.332031 592.304688 1313.835938 613.121094 1281.117188 629.394531 C 1244.707031 647.800781 1210.652344 658.742188 1177.59375 662.734375 C 1135.367188 668.132812 1090.273438 662.578125 1039.253906 646.035156 C 1013.769531 637.636719 988.390625 627.226562 964.265625 615.511719 C 931.65625 599.980469 901.285156 573.394531 872.0625 547.527344 C 839.089844 518.4375 805.214844 488.679688 767.160156 473.699219 C 758.140625 470.042969 748.492188 467.035156 739.292969 464.367188 C 645.460938 438.09375 527.183594 451.476562 387.769531 504.589844 C 361.269531 514.59375 334.6875 527.894531 308.976562 540.589844 C 253.082031 568.226562 195.484375 596.832031 137.820312 594.621094 C 121.382812 593.960938 105.59375 591.125 90.589844 588.175781 C 77.515625 585.828125 63.992188 583.144531 50.402344 582.230469 C 13.921875 579.753906 -17.347656 592.210938 -33.707031 615.242188 L -32.113281 616.289062 C -16.289062 593.421875 14.394531 581.367188 50.136719 583.710938 Z M 52.242188 593.253906 C 65.945312 594.953125 79.335938 598.375 92.480469 601.753906 C 108.296875 605.867188 124.894531 609.867188 142.183594 611.445312 C 203.148438 616.539062 263.410156 585.867188 321.679688 556.363281 C 346.355469 543.738281 372.109375 530.796875 397.332031 520.816406 C 538.558594 464.71875 655.910156 449.390625 746.042969 474.996094 C 755.242188 477.667969 764.597656 480.875 773.617188 484.53125 C 810.640625 499.582031 843.464844 530.933594 875.433594 561.371094 C 904.144531 588.675781 933.710938 616.894531 965.984375 632.875 C 990.023438 645.085938 1015.152344 655.453125 1040.84375 664.140625 C 1091.074219 680.796875 1137.738281 686.125 1179.558594 680.144531 C 1212.503906 675.367188 1246.242188 663.351562 1282.875 643.710938 C 1313.039062 627.488281 1342.339844 607.550781 1370.566406 587.925781 C 1425.183594 550.382812 1481.796875 511.671875 1545.597656 500.984375 L 1545.167969 499.125 C 1480.828125 509.972656 1424.21875 548.683594 1369.308594 586.425781 C 1341.125 605.804688 1311.777344 625.988281 1281.90625 642.007812 C 1245.519531 661.695312 1211.828125 673.464844 1179.375 678.328125 C 1138.050781 684.398438 1091.632812 679.117188 1041.644531 662.5 C 1016.203125 653.859375 991.070312 643.492188 967.035156 631.28125 C 935.007812 615.347656 905.398438 587.371094 876.933594 560.113281 C 844.964844 529.675781 811.894531 498.28125 774.667969 482.9375 C 765.648438 479.28125 756.292969 476.074219 746.847656 473.359375 C 656.21875 447.664062 538.578125 463.195312 397.105469 519.25 C 371.589844 529.433594 346.085938 542.417969 321.160156 554.996094 C 263.183594 584.296875 203.214844 614.769531 142.738281 609.761719 C 125.40625 608.429688 109.097656 604.230469 93.285156 600.117188 C 80.140625 596.738281 66.5 593.269531 52.800781 591.574219 C -3.242188 584.5625 -28.195312 612.921875 -34.613281 621.695312 L -33.019531 622.746094 C -27.097656 613.882812 -2.765625 586.175781 52.242188 593.253906 Z M 53.609375 602.664062 C 53.855469 602.707031 54.101562 602.753906 54.347656 602.796875 C 68.164062 605.277344 81.871094 609.777344 95.132812 613.941406 C 111.753906 619.21875 128.871094 624.582031 146.8125 626.785156 C 210.792969 634.96875 273.175781 602.386719 333.570312 570.972656 C 357.464844 558.460938 382.1875 545.589844 406.667969 535.476562 C 551.695312 475.222656 665.230469 458.449219 753.394531 483.699219 C 762.589844 486.371094 771.945312 489.578125 780.921875 493.480469 C 817.410156 508.691406 849.429688 541.679688 880.394531 573.460938 C 908.097656 602.113281 936.703125 631.433594 968.640625 647.863281 C 992.386719 660.273438 1017.429688 671.136719 1042.828125 680.023438 C 1092.972656 697.175781 1139.433594 702.210938 1180.9375 695.15625 C 1213.480469 689.796875 1246.027344 677.316406 1282.96875 655.945312 C 1310.824219 639.820312 1337.726562 620.46875 1364.003906 601.765625 C 1419.851562 561.644531 1477.445312 520.3125 1543.492188 511.296875 L 1543.308594 509.484375 C 1476.722656 518.652344 1418.882812 559.945312 1362.992188 600.3125 C 1336.960938 619.058594 1309.808594 638.363281 1282.203125 654.535156 C 1245.261719 675.90625 1213.003906 688.1875 1180.710938 693.585938 C 1139.496094 700.441406 1093.28125 695.449219 1043.339844 678.589844 C 1017.941406 669.699219 993.101562 659.128906 969.398438 646.472656 C 937.953125 630.132812 909.351562 600.8125 881.847656 572.449219 C 850.929688 540.421875 818.664062 507.386719 781.929688 492.136719 C 772.953125 488.230469 763.597656 485.023438 754.152344 482.308594 C 665.542969 456.722656 551.714844 473.699219 406.148438 534.113281 C 381.667969 544.226562 356.902344 557.34375 332.761719 569.808594 C 272.660156 601.019531 210.5625 633.398438 147.28125 625.597656 C 129.339844 623.394531 112.222656 618.027344 95.84375 612.796875 C 82.585938 608.632812 68.835938 604.378906 54.816406 601.609375 C 54.570312 601.5625 54.324219 601.519531 54.078125 601.476562 C 23.980469 596.070312 -15.265625 600.476562 -35.894531 628.847656 L -34.300781 629.898438 C -14.457031 601.640625 24.003906 597.347656 53.609375 602.664062 Z M 56.207031 612.296875 C 70.382812 615.605469 84.453125 620.933594 98.070312 625.925781 C 115.011719 632.277344 132.691406 638.761719 151.195312 642.085938 C 217.9375 653.308594 282.449219 618.816406 344.722656 585.449219 C 367.832031 573.054688 391.769531 560.296875 415.511719 550.050781 C 509.355469 509.625 646.964844 459.496094 760.453125 492.605469 C 769.652344 495.277344 779.007812 498.484375 787.734375 502.34375 C 823.640625 517.957031 854.652344 552.292969 884.363281 585.375 C 911.3125 615.417969 939.15625 646.132812 970.265625 662.917969 C 993.921875 675.824219 1018.675781 686.886719 1043.78125 695.980469 C 1093.636719 713.335938 1139.894531 718.078125 1181.488281 710.527344 C 1213.957031 704.140625 1246.144531 690.828125 1282.570312 668.09375 C 1308.359375 652.105469 1333.363281 633.429688 1357.535156 615.113281 C 1414.070312 572.570312 1472.351562 528.816406 1540.644531 521.480469 L 1540.460938 519.664062 C 1471.675781 526.910156 1413.101562 570.871094 1356.519531 613.660156 C 1332.351562 631.976562 1307.347656 650.652344 1281.601562 666.394531 C 1245.222656 688.882812 1213.28125 702.238281 1181.101562 708.421875 C 1139.757812 716.015625 1093.789062 711.070312 1044.382812 694.050781 C 1019.234375 685.207031 994.480469 674.140625 971.070312 661.28125 C 940.160156 644.785156 912.363281 613.824219 885.617188 584.074219 C 855.457031 550.65625 824.488281 516.070312 788.335938 500.414062 C 779.359375 496.511719 770.25 493.347656 760.808594 490.632812 C 646.824219 457.433594 508.679688 507.722656 414.542969 548.347656 C 390.800781 558.59375 366.863281 571.351562 343.464844 583.949219 C 281.484375 617.113281 217.261719 651.402344 150.96875 640.515625 C 132.667969 637.484375 115.03125 630.753906 98.089844 624.398438 C 84.472656 619.410156 70.402344 614.082031 55.980469 610.726562 C 26.191406 603.597656 -16.242188 605.902344 -37.832031 635.375 L -36.238281 636.425781 C -14.734375 607.445312 26.871094 605.5 56.207031 612.296875 Z M 58.066406 621.792969 C 72.605469 625.933594 86.785156 632.042969 100.476562 638.066406 C 117.976562 645.539062 136.175781 653.386719 155.578125 657.382812 C 225.085938 671.648438 291.476562 635.203125 355.875 599.925781 C 378.445312 587.6875 401.644531 574.796875 424.644531 564.417969 C 527.421875 518.214844 659.496094 469.128906 767.601562 501.015625 C 776.796875 503.6875 785.863281 507.097656 794.59375 510.957031 C 829.710938 526.683594 859.675781 562.613281 888.628906 597.089844 C 914.859375 628.277344 941.902344 660.625 972.429688 677.820312 C 995.75 691.171875 1020.210938 702.4375 1045.566406 711.574219 C 1095.375 729.175781 1141.386719 733.875 1182.910156 725.296875 C 1214.640625 718.773438 1246.511719 704.386719 1282.910156 680.375 C 1306.597656 664.773438 1330.027344 646.324219 1352.296875 628.683594 C 1409.519531 583.71875 1468.535156 537.292969 1538.738281 532.082031 L 1538.554688 530.269531 C 1467.816406 535.636719 1408.507812 582.265625 1351.238281 627.476562 C 1328.722656 645.070312 1305.582031 663.316406 1281.855469 679.167969 C 1245.746094 702.976562 1213.875 717.363281 1182.390625 723.929688 C 1141.363281 732.597656 1095.597656 727.941406 1046.035156 710.386719 C 1020.925781 701.292969 996.464844 690.027344 973.390625 676.71875 C 943.066406 659.816406 916.023438 627.464844 889.996094 596.570312 C 860.839844 561.804688 830.875 525.875 795.308594 509.8125 C 786.332031 505.910156 777.265625 502.5 768.070312 499.828125 C 659.222656 467.804688 526.902344 516.847656 423.835938 563.253906 C 400.832031 573.632812 377.390625 586.480469 355.066406 598.761719 C 292.324219 633.316406 227.386719 668.75 160.039062 656.65625 C 158.804688 656.433594 157.324219 656.167969 156.089844 655.945312 C 136.9375 651.996094 118.738281 644.148438 101.234375 636.675781 C 87.546875 630.652344 73.363281 624.542969 58.582031 620.359375 C 27.824219 611.527344 -16.027344 611.796875 -38.535156 642.121094 L -36.941406 643.171875 C -15.058594 613.5 27.804688 613.050781 58.066406 621.792969 Z M 59.925781 631.292969 C 74.824219 636.257812 89.367188 643.199219 103.167969 650.007812 C 121.191406 658.84375 139.953125 667.8125 159.714844 672.636719 C 231.941406 690.191406 300.457031 651.835938 366.488281 614.5625 C 388.320312 602.191406 410.980469 589.457031 433.195312 579.191406 C 555.230469 522.191406 694.382812 470.554688 801.359375 520.0625 C 835.898438 536.195312 865.101562 573.515625 893.003906 609.585938 C 918.230469 642.117188 944.511719 675.859375 974.457031 693.457031 C 1052.351562 739.015625 1122.582031 754.9375 1183.664062 740.957031 C 1244.746094 726.980469 1296.75 684.132812 1347.011719 642.5 C 1404.679688 595.070312 1464.183594 545.933594 1536.050781 542.800781 L 1535.867188 540.988281 C 1463.460938 544.273438 1403.710938 593.367188 1345.753906 641.003906 C 1295.539062 682.386719 1243.820312 725.035156 1183.03125 738.808594 C 1122.484375 752.628906 1052.503906 736.75 975.058594 691.527344 C 945.316406 674.222656 919.238281 640.773438 894.257812 608.28125 C 866.152344 571.921875 836.992188 534.355469 801.960938 518.136719 C 694.285156 468.25 554.597656 520.042969 432.273438 577.242188 C 410.011719 587.757812 387.351562 600.488281 365.519531 612.859375 C 299.78125 649.933594 231.757812 688.375 160.023438 670.910156 C 140.511719 666.132812 121.746094 657.160156 103.726562 648.324219 C 89.675781 641.472656 75.132812 634.535156 60.238281 629.566406 C 26.136719 618.097656 -18.183594 619.554688 -40.179688 648.445312 L -38.585938 649.496094 C -17.011719 621.546875 26.519531 620.203125 59.925781 631.292969 Z M 59.925781 631.292969 " clip-rule="nonzero"/></clipPath><linearGradient x1="-7.652441" gradientTransform="matrix(2.467042, 0.443077, -0.442922, 2.466177, 67.753859, 54.56459)" y1="129.899994" x2="588.243557" gradientUnits="userSpaceOnUse" y2="129.899994" id="id5"><stop stop-opacity="1" stop-color="rgb(29.798889%, 0%, 44.299316%)" offset="0"/><stop stop-opacity="1" stop-color="rgb(29.853821%, 0.00457764%, 44.309998%)" offset="0.015625"/><stop stop-opacity="1" stop-color="rgb(30.024719%, 0.0183105%, 44.342041%)" offset="0.0234375"/><stop stop-opacity="1" stop-color="rgb(30.253601%, 0.0396729%, 44.387817%)" offset="0.03125"/><stop stop-opacity="1" stop-color="rgb(30.482483%, 0.0595093%, 44.432068%)" offset="0.0390625"/><stop stop-opacity="1" stop-color="rgb(30.711365%, 0.0808716%, 44.476318%)" offset="0.046875"/><stop stop-opacity="1" stop-color="rgb(30.940247%, 0.100708%, 44.522095%)" offset="0.0546875"/><stop stop-opacity="1" stop-color="rgb(31.169128%, 0.12207%, 44.566345%)" offset="0.0625"/><stop stop-opacity="1" stop-color="rgb(31.39801%, 0.141907%, 44.610596%)" offset="0.0703125"/><stop stop-opacity="1" stop-color="rgb(31.626892%, 0.161743%, 44.656372%)" offset="0.078125"/><stop stop-opacity="1" stop-color="rgb(31.8573%, 0.183105%, 44.700623%)" offset="0.0859375"/><stop stop-opacity="1" stop-color="rgb(32.086182%, 0.202942%, 44.744873%)" offset="0.09375"/><stop stop-opacity="1" stop-color="rgb(32.315063%, 0.224304%, 44.790649%)" offset="0.101563"/><stop stop-opacity="1" stop-color="rgb(32.543945%, 0.244141%, 44.8349%)" offset="0.109375"/><stop stop-opacity="1" stop-color="rgb(32.772827%, 0.263977%, 44.87915%)" offset="0.117188"/><stop stop-opacity="1" stop-color="rgb(33.001709%, 0.285339%, 44.924927%)" offset="0.125"/><stop stop-opacity="1" stop-color="rgb(33.230591%, 0.305176%, 44.969177%)" offset="0.132813"/><stop stop-opacity="1" stop-color="rgb(33.459473%, 0.326538%, 45.013428%)" offset="0.140625"/><stop stop-opacity="1" stop-color="rgb(33.688354%, 0.346375%, 45.059204%)" offset="0.148438"/><stop stop-opacity="1" stop-color="rgb(33.917236%, 0.367737%, 45.103455%)" offset="0.15625"/><stop stop-opacity="1" stop-color="rgb(34.146118%, 0.387573%, 45.147705%)" offset="0.164063"/><stop stop-opacity="1" stop-color="rgb(34.375%, 0.40741%, 45.193481%)" offset="0.171875"/><stop stop-opacity="1" stop-color="rgb(34.603882%, 0.428772%, 45.237732%)" offset="0.179688"/><stop stop-opacity="1" stop-color="rgb(34.832764%, 0.448608%, 45.281982%)" offset="0.1875"/><stop stop-opacity="1" stop-color="rgb(35.061646%, 0.469971%, 45.326233%)" offset="0.195312"/><stop stop-opacity="1" stop-color="rgb(35.292053%, 0.489807%, 45.372009%)" offset="0.203125"/><stop stop-opacity="1" stop-color="rgb(35.520935%, 0.509644%, 45.41626%)" offset="0.210938"/><stop stop-opacity="1" stop-color="rgb(35.749817%, 0.531006%, 45.46051%)" offset="0.21875"/><stop stop-opacity="1" stop-color="rgb(35.978699%, 0.550842%, 45.506287%)" offset="0.226563"/><stop stop-opacity="1" stop-color="rgb(36.207581%, 0.572205%, 45.550537%)" offset="0.234375"/><stop stop-opacity="1" stop-color="rgb(36.436462%, 0.592041%, 45.594788%)" offset="0.242188"/><stop stop-opacity="1" stop-color="rgb(36.665344%, 0.613403%, 45.640564%)" offset="0.25"/><stop stop-opacity="1" stop-color="rgb(36.894226%, 0.63324%, 45.684814%)" offset="0.257812"/><stop stop-opacity="1" stop-color="rgb(37.123108%, 0.653076%, 45.729065%)" offset="0.265625"/><stop stop-opacity="1" stop-color="rgb(37.35199%, 0.674438%, 45.774841%)" offset="0.273438"/><stop stop-opacity="1" stop-color="rgb(37.580872%, 0.694275%, 45.819092%)" offset="0.28125"/><stop stop-opacity="1" stop-color="rgb(37.809753%, 0.715637%, 45.863342%)" offset="0.289063"/><stop stop-opacity="1" stop-color="rgb(38.038635%, 0.735474%, 45.909119%)" offset="0.296875"/><stop stop-opacity="1" stop-color="rgb(38.267517%, 0.75531%, 45.953369%)" offset="0.304688"/><stop stop-opacity="1" stop-color="rgb(38.496399%, 0.776672%, 45.99762%)" offset="0.3125"/><stop stop-opacity="1" stop-color="rgb(38.725281%, 0.796509%, 46.043396%)" offset="0.320312"/><stop stop-opacity="1" stop-color="rgb(38.955688%, 0.817871%, 46.087646%)" offset="0.328125"/><stop stop-opacity="1" stop-color="rgb(39.18457%, 0.837708%, 46.131897%)" offset="0.335938"/><stop stop-opacity="1" stop-color="rgb(39.413452%, 0.857544%, 46.176147%)" offset="0.34375"/><stop stop-opacity="1" stop-color="rgb(39.642334%, 0.878906%, 46.221924%)" offset="0.351562"/><stop stop-opacity="1" stop-color="rgb(39.871216%, 0.898743%, 46.266174%)" offset="0.359375"/><stop stop-opacity="1" stop-color="rgb(40.100098%, 0.920105%, 46.310425%)" offset="0.367188"/><stop stop-opacity="1" stop-color="rgb(40.328979%, 0.939941%, 46.356201%)" offset="0.375"/><stop stop-opacity="1" stop-color="rgb(40.557861%, 0.961304%, 46.400452%)" offset="0.382812"/><stop stop-opacity="1" stop-color="rgb(40.786743%, 0.98114%, 46.444702%)" offset="0.390625"/><stop stop-opacity="1" stop-color="rgb(41.015625%, 1.000977%, 46.490479%)" offset="0.398437"/><stop stop-opacity="1" stop-color="rgb(41.244507%, 1.022339%, 46.534729%)" offset="0.40625"/><stop stop-opacity="1" stop-color="rgb(41.473389%, 1.042175%, 46.578979%)" offset="0.414062"/><stop stop-opacity="1" stop-color="rgb(41.702271%, 1.063538%, 46.624756%)" offset="0.421875"/><stop stop-opacity="1" stop-color="rgb(41.931152%, 1.083374%, 46.669006%)" offset="0.429688"/><stop stop-opacity="1" stop-color="rgb(42.160034%, 1.10321%, 46.713257%)" offset="0.4375"/><stop stop-opacity="1" stop-color="rgb(42.390442%, 1.124573%, 46.759033%)" offset="0.445312"/><stop stop-opacity="1" stop-color="rgb(42.619324%, 1.144409%, 46.803284%)" offset="0.453125"/><stop stop-opacity="1" stop-color="rgb(42.848206%, 1.165771%, 46.847534%)" offset="0.460938"/><stop stop-opacity="1" stop-color="rgb(43.077087%, 1.185608%, 46.893311%)" offset="0.46875"/><stop stop-opacity="1" stop-color="rgb(43.305969%, 1.20697%, 46.937561%)" offset="0.476562"/><stop stop-opacity="1" stop-color="rgb(43.534851%, 1.226807%, 46.981812%)" offset="0.484375"/><stop stop-opacity="1" stop-color="rgb(43.763733%, 1.246643%, 47.027588%)" offset="0.492188"/><stop stop-opacity="1" stop-color="rgb(43.992615%, 1.268005%, 47.071838%)" offset="0.5"/><stop stop-opacity="1" stop-color="rgb(44.221497%, 1.287842%, 47.116089%)" offset="0.507812"/><stop stop-opacity="1" stop-color="rgb(44.450378%, 1.309204%, 47.160339%)" offset="0.515625"/><stop stop-opacity="1" stop-color="rgb(44.67926%, 1.329041%, 47.206116%)" offset="0.523438"/><stop stop-opacity="1" stop-color="rgb(44.908142%, 1.348877%, 47.250366%)" offset="0.53125"/><stop stop-opacity="1" stop-color="rgb(45.137024%, 1.370239%, 47.294617%)" offset="0.539062"/><stop stop-opacity="1" stop-color="rgb(45.365906%, 1.390076%, 47.340393%)" offset="0.546875"/><stop stop-opacity="1" stop-color="rgb(45.594788%, 1.411438%, 47.384644%)" offset="0.554688"/><stop stop-opacity="1" stop-color="rgb(45.825195%, 1.431274%, 47.428894%)" offset="0.5625"/><stop stop-opacity="1" stop-color="rgb(46.054077%, 1.452637%, 47.47467%)" offset="0.570312"/><stop stop-opacity="1" stop-color="rgb(46.282959%, 1.472473%, 47.518921%)" offset="0.578125"/><stop stop-opacity="1" stop-color="rgb(46.511841%, 1.49231%, 47.563171%)" offset="0.585938"/><stop stop-opacity="1" stop-color="rgb(46.740723%, 1.513672%, 47.608948%)" offset="0.59375"/><stop stop-opacity="1" stop-color="rgb(46.969604%, 1.533508%, 47.653198%)" offset="0.601562"/><stop stop-opacity="1" stop-color="rgb(47.198486%, 1.554871%, 47.697449%)" offset="0.609375"/><stop stop-opacity="1" stop-color="rgb(47.427368%, 1.574707%, 47.743225%)" offset="0.617188"/><stop stop-opacity="1" stop-color="rgb(47.65625%, 1.594543%, 47.787476%)" offset="0.625"/><stop stop-opacity="1" stop-color="rgb(47.885132%, 1.615906%, 47.831726%)" offset="0.632813"/><stop stop-opacity="1" stop-color="rgb(48.114014%, 1.635742%, 47.877502%)" offset="0.640625"/><stop stop-opacity="1" stop-color="rgb(48.342896%, 1.657104%, 47.921753%)" offset="0.648438"/><stop stop-opacity="1" stop-color="rgb(48.571777%, 1.676941%, 47.966003%)" offset="0.65625"/><stop stop-opacity="1" stop-color="rgb(48.800659%, 1.698303%, 48.01178%)" offset="0.664063"/><stop stop-opacity="1" stop-color="rgb(49.029541%, 1.71814%, 48.05603%)" offset="0.671875"/><stop stop-opacity="1" stop-color="rgb(49.258423%, 1.737976%, 48.100281%)" offset="0.679688"/><stop stop-opacity="1" stop-color="rgb(49.488831%, 1.759338%, 48.144531%)" offset="0.6875"/><stop stop-opacity="1" stop-color="rgb(49.717712%, 1.779175%, 48.190308%)" offset="0.695312"/><stop stop-opacity="1" stop-color="rgb(49.946594%, 1.800537%, 48.234558%)" offset="0.703125"/><stop stop-opacity="1" stop-color="rgb(50.175476%, 1.820374%, 48.278809%)" offset="0.710938"/><stop stop-opacity="1" stop-color="rgb(50.404358%, 1.84021%, 48.324585%)" offset="0.71875"/><stop stop-opacity="1" stop-color="rgb(50.63324%, 1.861572%, 48.368835%)" offset="0.726562"/><stop stop-opacity="1" stop-color="rgb(50.862122%, 1.881409%, 48.413086%)" offset="0.734375"/><stop stop-opacity="1" stop-color="rgb(51.091003%, 1.902771%, 48.458862%)" offset="0.742188"/><stop stop-opacity="1" stop-color="rgb(51.319885%, 1.922607%, 48.503113%)" offset="0.75"/><stop stop-opacity="1" stop-color="rgb(51.548767%, 1.94397%, 48.547363%)" offset="0.757812"/><stop stop-opacity="1" stop-color="rgb(51.777649%, 1.963806%, 48.59314%)" offset="0.765625"/><stop stop-opacity="1" stop-color="rgb(52.006531%, 1.983643%, 48.63739%)" offset="0.773438"/><stop stop-opacity="1" stop-color="rgb(52.235413%, 2.005005%, 48.681641%)" offset="0.78125"/><stop stop-opacity="1" stop-color="rgb(52.464294%, 2.024841%, 48.727417%)" offset="0.789062"/><stop stop-opacity="1" stop-color="rgb(52.693176%, 2.046204%, 48.771667%)" offset="0.796875"/><stop stop-opacity="1" stop-color="rgb(52.923584%, 2.06604%, 48.815918%)" offset="0.804688"/><stop stop-opacity="1" stop-color="rgb(53.152466%, 2.085876%, 48.861694%)" offset="0.8125"/><stop stop-opacity="1" stop-color="rgb(53.381348%, 2.107239%, 48.905945%)" offset="0.820312"/><stop stop-opacity="1" stop-color="rgb(53.610229%, 2.127075%, 48.950195%)" offset="0.828125"/><stop stop-opacity="1" stop-color="rgb(53.839111%, 2.148438%, 48.994446%)" offset="0.835938"/><stop stop-opacity="1" stop-color="rgb(54.067993%, 2.168274%, 49.040222%)" offset="0.84375"/><stop stop-opacity="1" stop-color="rgb(54.296875%, 2.189636%, 49.084473%)" offset="0.851562"/><stop stop-opacity="1" stop-color="rgb(54.525757%, 2.209473%, 49.128723%)" offset="0.859375"/><stop stop-opacity="1" stop-color="rgb(54.754639%, 2.229309%, 49.1745%)" offset="0.867188"/><stop stop-opacity="1" stop-color="rgb(54.983521%, 2.250671%, 49.21875%)" offset="0.875"/><stop stop-opacity="1" stop-color="rgb(55.212402%, 2.270508%, 49.263%)" offset="0.882812"/><stop stop-opacity="1" stop-color="rgb(55.441284%, 2.29187%, 49.308777%)" offset="0.890625"/><stop stop-opacity="1" stop-color="rgb(55.670166%, 2.311707%, 49.353027%)" offset="0.898438"/><stop stop-opacity="1" stop-color="rgb(55.899048%, 2.331543%, 49.397278%)" offset="0.90625"/><stop stop-opacity="1" stop-color="rgb(56.12793%, 2.352905%, 49.443054%)" offset="0.914062"/><stop stop-opacity="1" stop-color="rgb(56.356812%, 2.372742%, 49.487305%)" offset="0.921875"/><stop stop-opacity="1" stop-color="rgb(56.587219%, 2.394104%, 49.531555%)" offset="0.929688"/><stop stop-opacity="1" stop-color="rgb(56.816101%, 2.41394%, 49.577332%)" offset="0.9375"/><stop stop-opacity="1" stop-color="rgb(57.044983%, 2.435303%, 49.621582%)" offset="0.945312"/><stop stop-opacity="1" stop-color="rgb(57.273865%, 2.455139%, 49.665833%)" offset="0.953125"/><stop stop-opacity="1" stop-color="rgb(57.502747%, 2.474976%, 49.711609%)" offset="0.960938"/><stop stop-opacity="1" stop-color="rgb(57.731628%, 2.496338%, 49.755859%)" offset="0.96875"/><stop stop-opacity="1" stop-color="rgb(57.96051%, 2.516174%, 49.80011%)" offset="0.976562"/><stop stop-opacity="1" stop-color="rgb(58.189392%, 2.537537%, 49.845886%)" offset="0.984375"/><stop stop-opacity="1" stop-color="rgb(58.418274%, 2.557373%, 49.890137%)" offset="0.992188"/><stop stop-opacity="1" stop-color="rgb(58.647156%, 2.577209%, 49.934387%)" offset="1"/></linearGradient></defs><g clip-path="url(#id1)"><g clip-path="url(#id2)"><g clip-path="url(#id3)"><g clip-path="url(#id4)"><path fill="url(#id5)" d="M 44.996094 72.769531 L -75.097656 741.449219 L 1395.003906 1005.476562 L 1515.097656 336.796875 Z M 44.996094 72.769531 " fill-rule="nonzero"/></g></g></g></g></svg>